<svg width="36" height="24" viewBox="0 0 36 24" fill="none" xmlns="http://www.w3.org/2000/svg">
<path d="M10.4845 15.8371L11.5545 19.3089C11.7949 20.0972 11.8952 20.6475 11.855 20.9612C12.4402 19.3938 12.8491 17.6857 13.0818 15.8371H14.3684C13.8152 18.8468 13.0855 21.0339 12.1797 22.3982C11.474 23.4496 10.701 23.9753 9.8591 23.9753C9.63464 23.9753 9.35792 23.9075 9.02955 23.7728V23.0473C9.18999 23.0708 9.37821 23.0834 9.59469 23.0834C9.98742 23.0834 10.304 22.9746 10.5448 22.7573C10.8331 22.4926 10.9775 22.1951 10.9775 21.8654C10.9775 21.6402 10.8649 21.1782 10.6408 20.4792L9.1499 15.8371H10.4844H10.4845ZM2.29511 13.7031L4.255 19.6829H4.2671L6.23902 13.7031H7.85012C8.2029 16.6687 8.41126 19.382 8.47522 21.8415H7.11691C7.06912 19.5424 6.93674 17.3805 6.72026 15.3553H6.70843L4.64003 21.8415H3.60562L1.54974 15.3553H1.53763C1.38511 17.3002 1.28911 19.4622 1.24908 21.8415H0.010437C0.0904829 18.9478 0.290804 16.2352 0.6114 13.7031H2.29518H2.29511Z" fill="#00758F"/>
<path d="M24.251 13.5823C26.3592 13.5823 27.4133 14.9292 27.4133 17.6217C27.4133 19.0848 27.0963 20.19 26.4629 20.9366C26.3487 21.073 26.2225 21.1909 26.0897 21.3001L27.5816 22.0378L27.5802 22.0377L27.0504 22.9525L25.1075 21.8188C24.7855 21.9142 24.4311 21.9619 24.045 21.9619C23.0098 21.9619 22.2366 21.6602 21.7254 21.0576C21.1643 20.3909 20.8838 19.3414 20.8838 17.9109C20.8838 16.4561 21.2003 15.3551 21.8339 14.6075C22.411 13.9237 23.2168 13.5823 24.251 13.5823V13.5823ZM17.795 13.5942C18.5485 13.5942 19.2337 13.7958 19.8508 14.1976L19.5373 14.8961C19.0093 14.6716 18.4886 14.5589 17.9752 14.5589C17.5586 14.5589 17.2376 14.6592 17.0138 14.8609C16.7888 15.0609 16.6496 15.3183 16.6496 15.632C16.6496 16.114 16.9931 16.5321 17.6272 16.8853C17.8349 16.9988 18.0419 17.1137 18.2482 17.2299L18.2955 17.2565L18.3193 17.2698L18.3666 17.2964L18.3903 17.3098L18.4376 17.3365C18.9176 17.6071 19.3693 17.8653 19.3693 17.8653C20.0033 18.3154 20.3194 18.7953 20.3194 19.5856C20.3194 20.2759 20.0664 20.8424 19.5622 21.2858C19.0577 21.7271 18.3798 21.9484 17.531 21.9484C16.737 21.9484 15.9676 21.6937 15.2223 21.1886L15.5709 20.4895C16.2123 20.811 16.7927 20.9715 17.3139 20.9715C17.8027 20.9715 18.1854 20.8624 18.4622 20.6469C18.7384 20.4298 18.9039 20.127 18.9039 19.7431C18.9039 19.2598 18.5678 18.8467 17.9511 18.5002C17.7581 18.3936 17.5657 18.2859 17.3738 18.1772L17.3266 18.1505C17.2398 18.1014 17.1524 18.0518 17.0668 18.0032L17.0204 17.9767C16.604 17.7399 16.244 17.533 16.244 17.533C15.6275 17.0821 15.3184 16.5983 15.3184 15.8011C15.3184 15.1419 15.5489 14.609 16.0093 14.2036C16.4707 13.7973 17.066 13.5942 17.795 13.5942ZM29.891 13.7031V20.8404H32.4517V21.8415H28.5922V13.7031H29.891ZM33.8747 20.8435V21.0126H33.5932V21.8406H33.3779V21.0126H33.0854V20.8435H33.8748H33.8747ZM34.3946 20.8435L34.6649 21.5232L34.9132 20.8435H35.2183V21.8406H35.0155V21.0818L34.7328 21.8406H34.5866L34.3035 21.0818H34.2926V21.8406H34.1007V20.8435H34.3946H34.3946ZM24.1184 14.5832C22.876 14.5832 22.2545 15.6085 22.2545 17.6578C22.2545 18.8317 22.4192 19.6829 22.748 20.2134C23.0525 20.7044 23.5294 20.9495 24.1788 20.9495C25.4211 20.9495 26.0426 19.9161 26.0426 17.8505C26.0426 16.6931 25.8779 15.8491 25.5495 15.3183C25.2447 14.8284 24.768 14.5832 24.1185 14.5832H24.1184Z" fill="#F29111"/>
<path d="M20.8621 0.50428C21.2742 -0.508396 22.7153 0.258503 23.2745 0.612245C23.4115 0.70075 23.5687 0.88773 23.7259 0.956841C23.971 0.966469 24.216 0.985655 24.4616 0.995902C24.9222 1.10414 25.3536 1.19258 25.7166 1.39929C27.4033 2.39265 28.5013 3.40491 29.5119 5.07693C29.7278 5.43109 29.8357 5.81433 30.0121 6.19757C30.2569 6.76883 30.532 7.36849 30.8161 7.90866C30.9433 8.16475 31.0417 8.44952 31.2184 8.66579C31.2874 8.76468 31.4833 8.79384 31.6004 8.85291C31.9242 9.0205 32.3164 9.14772 32.6209 9.34439C33.1896 9.69896 33.7394 10.1215 34.2392 10.554C34.4255 10.721 34.5524 10.9573 34.7299 11.1339V11.2231C34.5724 11.2714 34.4154 11.3209 34.2582 11.3606C33.915 11.4488 33.611 11.4288 33.278 11.517C33.0723 11.5767 32.8168 11.6555 32.601 11.6755L32.6209 11.6956C32.7479 12.0583 33.4347 12.3533 33.7489 12.5703C34.1304 12.8456 34.4839 13.1796 34.7685 13.5631C34.8668 13.661 34.965 13.75 35.0628 13.8476C35.1312 13.9465 35.1504 14.0744 35.2196 14.1625V14.1924C35.143 14.1654 35.0879 14.1138 35.0357 14.0599L35.0046 14.0274C34.9734 13.995 34.942 13.9633 34.9062 13.9371C34.6897 13.7892 34.4747 13.6123 34.2582 13.4749C33.8861 13.2387 33.4544 13.1017 33.0723 12.8646C32.8562 12.727 32.6502 12.5703 32.4443 12.4128C32.2576 12.2748 32.0519 12.0098 31.9346 11.8131C31.8655 11.7044 31.856 11.5767 31.7771 11.4981C31.7912 11.3669 31.9115 11.3279 32.0328 11.2958L32.0608 11.2885C32.1026 11.2776 32.1436 11.2667 32.1794 11.2524C32.6892 11.0359 33.2971 10.9573 34.082 10.977C34.0524 10.7799 33.562 10.5344 33.4054 10.4163C33.0911 10.1898 32.7583 9.95347 32.4249 9.74731C32.2483 9.63934 31.9438 9.56053 31.7481 9.4723C31.4833 9.36406 30.8947 9.25589 30.748 9.04972C30.4987 8.72473 30.3196 8.33708 30.1458 7.94552L30.0985 7.83865C30.0827 7.80304 30.0669 7.76744 30.051 7.73186C29.8455 7.26031 29.5903 6.76869 29.3843 6.28587C29.2766 6.05034 29.2272 5.84363 29.1092 5.61772C28.3936 4.2315 27.3343 3.0709 26.0501 2.2547C25.6281 1.98912 25.1575 1.74334 24.638 1.5763C24.3436 1.48739 23.9903 1.53655 23.6766 1.46834H23.4702C23.294 1.41869 23.1469 1.23191 23.0095 1.13344C22.7058 0.927271 22.4017 0.788841 22.0387 0.641747C21.9114 0.582744 21.5481 0.445346 21.4213 0.553518C21.3428 0.573254 21.303 0.602893 21.2837 0.681701C21.2055 0.799294 21.2742 0.97644 21.3228 1.08489C21.4702 1.39916 21.6759 1.58593 21.8627 1.85151C22.0288 2.08704 22.2352 2.35262 22.353 2.60872C22.6072 3.1592 22.7255 3.7691 22.961 4.31952C23.0484 4.52651 23.1865 4.76204 23.3137 4.94875C23.4214 5.09694 23.6174 5.20408 23.6766 5.39168C23.7948 5.58836 23.4998 6.23732 23.4315 6.44342C23.176 7.24986 23.2255 8.37085 23.5197 9.06987L23.5354 9.10673L23.5511 9.14407C23.6585 9.4001 23.7735 9.67579 24.0591 9.74737C24.0787 9.72784 24.0591 9.73809 24.098 9.72784C24.1672 9.18678 24.1866 8.66572 24.3731 8.24239C24.4809 7.9777 24.6961 7.79058 24.8436 7.57451C24.9419 7.63338 24.9419 7.81087 25.0005 7.92833C25.1281 8.23297 25.2652 8.56697 25.4225 8.87251C25.7455 9.50173 26.1088 10.1118 26.5205 10.6622C26.6584 10.8588 26.8541 11.0752 27.0305 11.2523C27.1091 11.3209 27.1971 11.3605 27.2562 11.4487H27.2755V11.4784C26.9813 11.37 26.7948 11.0656 26.5601 10.8879C26.1184 10.5539 25.5893 10.0523 25.2848 9.57098C25.1575 9.29467 25.0198 9.02985 24.8826 8.75492V8.73504C24.8239 8.81357 24.8436 8.89156 24.8142 9.01039C24.6868 9.50174 24.7849 10.0623 24.3436 10.239C23.8434 10.446 23.4703 9.90499 23.3137 9.65915C22.8133 8.84315 22.6763 7.46655 23.0291 6.35533C23.1075 6.10935 23.1182 5.81433 23.255 5.61793C23.2255 5.44037 23.0886 5.39182 23.0095 5.28303C22.8722 5.09708 22.7547 4.88046 22.6472 4.67395C22.4407 4.27056 22.2939 3.78857 22.1371 3.35595C22.0682 3.17928 22.0485 3.00193 21.9798 2.83469C21.8626 2.57942 21.6466 2.32333 21.48 2.09749C21.2544 1.77291 20.5972 1.14382 20.8621 0.50428ZM24.0785 2.43081C24.1047 2.45708 24.1364 2.48005 24.1691 2.50268L24.2086 2.52977C24.2612 2.56622 24.3121 2.60459 24.3433 2.65685C24.3929 2.72603 24.4021 2.79432 24.4613 2.86364C24.4613 3.09999 24.3929 3.25713 24.2546 3.35505C24.2546 3.35505 24.2451 3.36537 24.2354 3.375C24.157 3.21745 24.0883 3.06073 24.0094 2.90332C23.9122 2.76592 23.7747 2.65692 23.6955 2.49992H23.6764V2.48019C23.7948 2.45096 23.9122 2.43081 24.0785 2.43081Z" fill="#00758F"/>
</svg>
