<svg width="25" height="24" viewBox="0 0 25 24" fill="none" xmlns="http://www.w3.org/2000/svg">
<path fill-rule="evenodd" clip-rule="evenodd" d="M5.15498 2C3.78498 2 2.77198 3.199 2.81798 4.498C2.86098 5.748 2.80498 7.365 2.39798 8.684C1.98798 10.006 1.29798 10.844 0.169983 10.952V12.167C1.29798 12.274 1.98898 13.112 2.39698 14.435C2.80498 15.754 2.86098 17.371 2.81698 18.62C2.77198 19.92 3.78498 21.119 5.15498 21.119H19.187C20.557 21.119 21.57 19.92 21.524 18.62C21.481 17.371 21.537 15.754 21.944 14.435C22.353 13.112 23.042 12.275 24.17 12.167V10.952C23.042 10.844 22.353 10.006 21.944 8.684C21.537 7.364 21.481 5.747 21.524 4.498C21.57 3.198 20.556 2 19.187 2H5.15498ZM16.44 13.769C16.44 15.559 15.105 16.644 12.89 16.644H9.11898C9.01104 16.644 8.90752 16.6011 8.83119 16.5248C8.75486 16.4485 8.71198 16.3449 8.71198 16.237V6.881C8.71225 6.77323 8.75524 6.66997 8.83154 6.59385C8.90784 6.51774 9.01121 6.475 9.11898 6.475H12.869C14.716 6.475 15.929 7.475 15.929 9.012C15.929 10.09 15.113 11.055 14.074 11.225V11.281C15.489 11.436 16.441 12.416 16.441 13.769H16.44ZM12.48 7.764H10.33V10.802H12.141C13.541 10.802 14.313 10.238 14.313 9.23C14.313 8.286 13.649 7.764 12.48 7.764ZM10.33 12.007V15.354H12.56C14.017 15.354 14.79 14.769 14.79 13.67C14.79 12.57 13.996 12.007 12.466 12.007H10.33V12.007Z" fill="#6F42C1"/>
</svg>
