<svg width="18" height="24" viewBox="0 0 18 24" fill="none" xmlns="http://www.w3.org/2000/svg">
<path d="M9.1096 23.9394L2.18337 22.0166L0.639862 4.70465H17.6001L16.055 22.0139L9.1096 23.9394Z" fill="#264DE4"/>
<path d="M14.7322 20.9117L16.0525 6.12012H9.12V22.4676L14.7322 20.9117Z" fill="#2965F1"/>
<path d="M4.1783 12.5409L4.36857 14.6641H9.11998V12.5409H4.1783ZM3.7959 8.24341L3.9889 10.3666H9.11998V8.24341H3.7959ZM9.11998 18.0552L9.11067 18.0576L6.74604 17.4191L6.59486 15.7258H4.46344L4.76088 19.0596L9.1102 20.2669L9.11998 20.2642V18.0552Z" fill="#EBEBEB"/>
<path d="M4.63138 0H7.2029V1.07541H5.70679V2.15083H7.20303V3.22617H4.63138V0ZM7.71727 0H10.2889V0.935136H8.79269V1.12215H10.2889V3.27297H7.71734V2.29097H9.21352V2.10396H7.71721V0H7.71727ZM10.8032 0H13.3748V0.935136H11.8786V1.12215H13.3748V3.27297H10.8032V2.29097H12.2994V2.10396H10.8033V0H10.8032Z" fill="white"/>
<path d="M14.0481 12.5409L14.4314 8.24341H9.11268V10.3666H12.1045L11.9113 12.5409H9.11268V14.6641H11.7272L11.4807 17.4178L9.11261 18.0569V20.2659L13.4654 19.0596L13.4973 18.7008L13.9963 13.111L14.0481 12.5409Z" fill="white"/>
</svg>
