<svg width="25" height="24" viewBox="0 0 25 24" fill="none" xmlns="http://www.w3.org/2000/svg">
<path d="M20.399 15.793C20.5002 15.7348 20.5844 15.651 20.643 15.55C20.7017 15.4488 20.7327 15.334 20.733 15.217L20.745 11.359C20.7452 11.242 20.7763 11.1272 20.835 11.026C20.8939 10.9249 20.9784 10.8411 21.08 10.783L23.17 9.58002C23.2714 9.52204 23.3862 9.49169 23.503 9.49202C23.62 9.4923 23.7348 9.52334 23.836 9.58202C23.9372 9.64026 24.0213 9.72406 24.08 9.82502C24.1384 9.92628 24.1691 10.0411 24.169 10.158V17.172C24.1689 17.2893 24.1379 17.4045 24.0791 17.506C24.0202 17.6075 23.9357 17.6916 23.834 17.75L15.941 22.284C15.8402 22.3417 15.7261 22.3721 15.61 22.3721C15.4939 22.3721 15.3798 22.3417 15.279 22.284L9.08498 18.742C8.98292 18.6838 8.89806 18.5996 8.83898 18.498C8.77996 18.3962 8.74892 18.2807 8.74899 18.163V14.626C8.74899 14.622 8.75298 14.62 8.75698 14.622C8.76098 14.624 8.76499 14.622 8.76499 14.617V14.613C8.76499 14.61 8.76698 14.608 8.76898 14.606L13.871 11.676C13.875 11.673 13.873 11.666 13.868 11.666C13.8672 11.666 13.8664 11.6658 13.8657 11.6655C13.8651 11.6651 13.8645 11.6646 13.864 11.664C13.8635 11.6635 13.8632 11.6628 13.8631 11.6621C13.8629 11.6614 13.8629 11.6607 13.863 11.66L13.873 8.19302C13.8735 8.07558 13.8429 7.96011 13.7844 7.85827C13.726 7.75642 13.6416 7.67182 13.54 7.61302C13.4386 7.55448 13.3236 7.52366 13.2065 7.52366C13.0894 7.52366 12.9744 7.55448 12.873 7.61302L9.08198 9.79902C8.98083 9.85719 8.86618 9.8878 8.74949 9.8878C8.63279 9.8878 8.51814 9.85719 8.41698 9.79902L4.61298 7.60902C4.51167 7.55088 4.39687 7.52036 4.28006 7.52052C4.16325 7.52068 4.04853 7.55152 3.94738 7.60994C3.84623 7.66836 3.7622 7.75232 3.70369 7.85342C3.64518 7.95452 3.61425 8.06921 3.61398 8.18602V14.453C3.61402 14.5698 3.58338 14.6846 3.52511 14.7859C3.46685 14.8872 3.38301 14.9713 3.28198 15.03C3.18111 15.0886 3.06662 15.1196 2.94998 15.12C2.83319 15.1203 2.71837 15.09 2.61698 15.032L0.505984 13.825C0.403922 13.7668 0.319059 13.6826 0.259984 13.581C0.200794 13.4789 0.169738 13.363 0.169984 13.245L0.188984 2.29202C0.189347 2.17536 0.220302 2.06083 0.27876 1.95987C0.337218 1.85891 0.421134 1.77505 0.522132 1.71665C0.62313 1.65826 0.737677 1.62738 0.85434 1.62709C0.971003 1.62681 1.0857 1.65712 1.18698 1.71502L8.41698 5.86802C8.51814 5.92619 8.63279 5.9568 8.74949 5.9568C8.86618 5.9568 8.98083 5.92619 9.08198 5.86802L16.31 1.71502C16.4113 1.65699 16.5262 1.62664 16.643 1.62702C16.76 1.62725 16.8748 1.65829 16.976 1.71702C17.0773 1.77554 17.1615 1.85969 17.22 1.96102C17.278 2.0624 17.3083 2.17723 17.308 2.29402V13.25C17.308 13.367 17.278 13.482 17.219 13.584C17.1602 13.6855 17.0757 13.7696 16.974 13.828L13.189 16.008C13.0872 16.0667 13.0026 16.1512 12.944 16.253C12.8854 16.3546 12.8547 16.4698 12.855 16.587C12.8551 16.7043 12.8861 16.8195 12.945 16.921C13.0043 17.0228 13.0895 17.107 13.192 17.165L15.28 18.354C15.3806 18.411 15.4943 18.441 15.61 18.441C15.7265 18.4409 15.841 18.4102 15.942 18.352L20.399 15.792V15.793ZM20.837 5.96502C20.8369 6.08267 20.8679 6.19826 20.927 6.30002C20.9866 6.40189 21.0722 6.48609 21.175 6.54402C21.2774 6.60191 21.3934 6.63166 21.5111 6.63025C21.6287 6.62885 21.7439 6.59634 21.845 6.53602L23.846 5.33602C23.9446 5.27685 24.0263 5.19313 24.083 5.09302C24.1399 4.99272 24.1699 4.87936 24.17 4.76402V2.32002C24.1698 2.20228 24.1384 2.0867 24.079 1.98502C24.0195 1.88333 23.9341 1.79923 23.8315 1.74126C23.7289 1.6833 23.6128 1.65354 23.495 1.65502C23.3773 1.65634 23.2621 1.68877 23.161 1.74902L21.161 2.94902C21.062 3.00805 20.9799 3.09178 20.923 3.19202C20.8664 3.29243 20.8368 3.40577 20.837 3.52102V5.96602V5.96502Z" fill="white"/>
</svg>
