<svg width="79" height="24" viewBox="0 0 79 24" fill="none" xmlns="http://www.w3.org/2000/svg">
<path d="M45.2172 8.13939C45.6353 8.13939 46.0416 8.19908 46.4359 8.31862C46.8182 8.45 47.0215 8.61723 47.0215 8.82047C47.0215 8.928 46.9856 9.03554 46.9138 9.13123C46.8661 9.22662 46.7585 9.29846 46.651 9.29846C46.4956 9.25062 46.3402 9.19077 46.185 9.11923C45.8862 8.9877 45.5636 8.91616 45.2292 8.928C44.8825 8.916 44.5241 8.9997 44.2253 9.17877C43.9626 9.35816 43.8192 9.66877 43.843 9.99139C43.831 10.2902 43.9507 10.5769 44.1776 10.7682C44.4284 10.9712 44.7153 11.1385 45.0259 11.2342C45.3605 11.3535 45.6952 11.4849 46.0296 11.6403C46.3653 11.8091 46.653 12.0598 46.8661 12.3692C47.105 12.752 47.2255 13.1967 47.2126 13.6477C47.2126 14.3528 47.0095 14.8905 46.5913 15.2489C46.1372 15.6312 45.5518 15.8225 44.9544 15.7866C44.4165 15.7986 43.879 15.6671 43.4129 15.4043C42.9827 15.1175 42.7676 14.8666 42.7676 14.6157C42.7676 14.4962 42.8153 14.3886 42.8872 14.2931C42.9469 14.2094 43.0306 14.1497 43.1379 14.1377C43.2315 14.1494 43.317 14.1964 43.377 14.2691C43.4725 14.3528 43.5682 14.4483 43.6758 14.5558C43.817 14.6849 43.984 14.7826 44.1656 14.8426C44.4046 14.9383 44.6675 14.9742 44.9184 14.9742C45.3009 14.998 45.6712 14.8785 45.9699 14.6515C46.2329 14.4125 46.3761 14.054 46.3522 13.6955C46.3642 13.3491 46.2447 13.0263 46.0058 12.7755C45.7669 12.5365 45.4801 12.3572 45.1575 12.2378C44.8229 12.1183 44.5002 11.9869 44.1536 11.8435C43.8192 11.7002 43.5324 11.4851 43.3053 11.1983C43.0664 10.8757 42.9349 10.4814 42.9589 10.0751C42.9469 9.75246 43.0185 9.42985 43.1619 9.13108C43.2815 8.88031 43.4727 8.67708 43.7116 8.5337C43.9385 8.40216 44.1776 8.30662 44.4285 8.23493C44.6913 8.17523 44.9542 8.13939 45.2172 8.13939ZM39.0993 8.70093C39.5055 9.05939 39.7087 9.63293 39.7087 10.3977V13.4925C39.7087 14.2691 39.5056 14.8308 39.0993 15.1892C38.6363 15.5438 38.0694 15.7359 37.4862 15.7359C36.9031 15.7359 36.3362 15.5438 35.8732 15.1892C35.4789 14.8308 35.2756 14.2692 35.2756 13.4923V10.3978C35.2756 9.62123 35.4787 9.05954 35.8732 8.70108C36.3385 8.35206 36.9045 8.16339 37.4862 8.16339C38.0679 8.16339 38.634 8.35206 39.0993 8.70108V8.70093ZM68.625 8.16323C68.9118 8.16323 69.0912 8.25877 69.1507 8.462L71.2658 15.2728V15.3326C71.2658 15.4402 71.1941 15.5357 71.0984 15.5834C70.9856 15.658 70.8507 15.6917 70.7161 15.6791C70.5847 15.6911 70.4532 15.6194 70.4053 15.4878L69.9515 13.9823H67.2509L66.7969 15.4878C66.761 15.6194 66.6176 15.7029 66.4861 15.6909C66.3625 15.6903 66.2419 15.6529 66.1396 15.5835C66.0321 15.5358 65.9724 15.4402 65.9724 15.3206C65.9724 15.2968 65.9842 15.2609 65.9962 15.2369L68.0993 8.462C68.159 8.25893 68.3382 8.16323 68.625 8.16323ZM57.9665 8.16323C58.2415 8.16323 58.4684 8.34246 58.6596 8.71293L60.2727 11.8077L61.8978 8.71293C62.1009 8.35446 62.3279 8.16323 62.5909 8.16323C62.7939 8.12739 62.9852 8.27093 63.021 8.474C63.033 8.50879 63.033 8.5466 63.021 8.58139V15.3565C63.021 15.452 62.9733 15.5357 62.8896 15.5835C62.7968 15.6364 62.6917 15.6642 62.5849 15.6642C62.478 15.6642 62.373 15.6364 62.2801 15.5835C62.2398 15.5611 62.2062 15.5281 62.1831 15.4881C62.16 15.4481 62.1481 15.4026 62.1487 15.3565V9.9677L60.5953 12.8831C60.5476 13.0266 60.4161 13.1342 60.2609 13.1342C60.1885 13.1282 60.1194 13.1013 60.0621 13.0568C60.0048 13.0122 59.9618 12.9519 59.9382 12.8832L58.3849 9.90769V15.3565C58.3849 15.452 58.3372 15.5357 58.2533 15.5835C58.1698 15.6432 58.0622 15.6791 57.9665 15.6791C57.859 15.6791 57.7515 15.6552 57.6679 15.5954C57.5722 15.5595 57.5126 15.464 57.5246 15.3685V8.59339C57.4887 8.39031 57.6321 8.19908 57.8353 8.16323C57.883 8.15123 57.9307 8.15123 57.9665 8.16323ZM74.6712 8.15123C74.8026 8.15123 74.9341 8.19908 75.0416 8.28277C75.161 8.40216 75.2685 8.54554 75.3284 8.70093L77.8973 13.7194V8.45016C77.8973 8.35446 77.945 8.27077 78.0289 8.23493C78.1217 8.18209 78.2267 8.15431 78.3335 8.15431C78.4403 8.15431 78.5453 8.18209 78.6381 8.23493C78.7218 8.28262 78.7696 8.36631 78.7696 8.45V15.3685C78.7696 15.464 78.7219 15.5477 78.6382 15.5954C78.5425 15.6552 78.447 15.6791 78.3395 15.6791C78.2212 15.6728 78.1073 15.6322 78.0118 15.5622C77.9163 15.4921 77.8433 15.3957 77.8018 15.2848L75.1013 10.1109V15.3685C75.1013 15.464 75.0536 15.5477 74.9818 15.5954C74.889 15.6482 74.784 15.676 74.6772 15.676C74.5704 15.676 74.4654 15.6482 74.3726 15.5954C74.3322 15.5729 74.2987 15.54 74.2755 15.5C74.2524 15.4601 74.2404 15.4146 74.241 15.3685V8.45C74.241 8.24693 74.3844 8.15123 74.6712 8.15123ZM28.1302 8.15123H30.0779C30.6515 8.12739 31.225 8.31862 31.6672 8.68893C32.0615 9.04739 32.2645 9.60893 32.2645 10.3738V10.4694C32.2645 11.234 32.0615 11.8077 31.6552 12.1662C31.2012 12.5365 30.6275 12.7397 30.0421 12.7038H28.6559V15.3685C28.6559 15.464 28.6082 15.5477 28.5245 15.5954C28.4317 15.6482 28.3267 15.676 28.2199 15.676C28.113 15.676 28.008 15.6482 27.9152 15.5954C27.8749 15.5729 27.8414 15.54 27.8182 15.5C27.7951 15.4601 27.7832 15.4146 27.7838 15.3685V8.45C27.7838 8.36631 27.8196 8.29462 27.8792 8.23493C27.951 8.17523 28.0345 8.13939 28.1302 8.15123ZM54.2744 8.15123C54.3699 8.15123 54.4536 8.18708 54.5015 8.27077C54.5612 8.34246 54.585 8.438 54.585 8.5337C54.585 8.62923 54.5612 8.73677 54.5015 8.82047C54.4538 8.904 54.3699 8.93985 54.2744 8.93985H52.6375V15.3685C52.6375 15.464 52.5896 15.5477 52.5059 15.5954C52.4131 15.6482 52.3081 15.676 52.2013 15.676C52.0945 15.676 51.9895 15.6482 51.8967 15.5954C51.8564 15.5729 51.8228 15.54 51.7997 15.5C51.7765 15.4601 51.7646 15.4146 51.7652 15.3685V8.93985H50.1042C50.0087 8.93985 49.925 8.904 49.8772 8.82047C49.8175 8.73677 49.7816 8.64123 49.7816 8.5337C49.7816 8.438 49.8055 8.34246 49.8653 8.27077C49.913 8.18708 49.9967 8.15123 50.0922 8.15123H54.2744ZM37.4981 8.928C36.6019 8.928 36.1599 9.406 36.1599 10.3857L36.1479 13.4925C36.1479 14.4603 36.5901 14.9502 37.4981 14.9502C37.8685 14.9742 38.227 14.8426 38.5019 14.5917C38.7647 14.2931 38.8842 13.8988 38.8604 13.4925V10.3857C38.8962 9.99139 38.7647 9.59708 38.5019 9.28646C38.227 9.03554 37.8685 8.904 37.4981 8.928ZM68.625 9.41785L67.4659 13.2655H69.7721L68.625 9.41785ZM30.0419 8.94H28.6559L28.6441 11.9871H30.0421C30.4124 12.0109 30.7829 11.8794 31.0458 11.6166C31.177 11.4673 31.2765 11.2929 31.3381 11.1039C31.3998 10.9149 31.4223 10.7153 31.4042 10.5174V10.3978C31.4401 10.0035 31.3087 9.60923 31.0458 9.29862C30.771 9.0477 30.4124 8.91616 30.0421 8.94016L30.0419 8.94ZM23.8047 13.4686C24.6412 6.92062 20.017 0.934157 13.4809 0.097849C6.94501 -0.738766 0.934703 3.88539 0.0980872 10.4215C-0.738221 16.9577 3.88593 22.956 10.4219 23.8043C16.9699 24.6408 22.9564 20.0166 23.8047 13.4686Z" fill="#FF6C37"/>
<path d="M16.265 7.6732L11.2224 12.7157L9.80035 11.2937C14.7591 6.33489 15.2491 6.76505 16.2647 7.6732H16.265Z" fill="white"/>
<path d="M11.2225 12.8351C11.2068 12.8355 11.1912 12.8325 11.1768 12.8263C11.1623 12.8202 11.1494 12.8109 11.1388 12.7992L9.705 11.3774C9.69367 11.3666 9.68464 11.3536 9.67848 11.3392C9.67231 11.3249 9.66913 11.3094 9.66913 11.2938C9.66913 11.2781 9.67231 11.2626 9.67848 11.2483C9.68464 11.2339 9.69367 11.2209 9.705 11.2101C14.7475 6.16768 15.2732 6.64552 16.3365 7.60152C16.3605 7.62537 16.3724 7.64922 16.3724 7.68522C16.3728 7.70091 16.3698 7.7165 16.3636 7.73092C16.3574 7.74535 16.3482 7.75825 16.3365 7.76876L11.2942 12.7992C11.2822 12.8232 11.2464 12.8351 11.2225 12.8351ZM9.96777 11.2938L11.2225 12.5484L16.0856 7.68537C15.2015 6.89676 14.6041 6.65768 9.96777 11.2938Z" fill="#FF6C37"/>
<path d="M12.6683 14.1616L11.2943 12.7874L16.3366 7.74493C17.6869 9.10709 15.6675 11.3177 12.6683 14.1616Z" fill="white"/>
<path d="M12.6682 14.281C12.6526 14.2814 12.637 14.2784 12.6225 14.2722C12.6081 14.266 12.5952 14.2568 12.5847 14.2451L11.2106 12.871C11.1867 12.8471 11.1867 12.8233 11.1867 12.7874C11.1867 12.7516 11.1986 12.7276 11.2226 12.7037L16.2649 7.66126C16.2756 7.6499 16.2886 7.64086 16.303 7.63467C16.3174 7.62849 16.3329 7.62531 16.3486 7.62531C16.3642 7.62531 16.3797 7.62849 16.3941 7.63467C16.4085 7.64086 16.4215 7.6499 16.4322 7.66126C16.5848 7.80244 16.7053 7.97467 16.7857 8.16636C16.8661 8.35804 16.9045 8.56473 16.8982 8.77249C16.8742 10.099 15.3687 11.7837 12.7639 14.2451C12.7281 14.2691 12.6922 14.281 12.6682 14.281ZM11.4615 12.7874C12.2261 13.564 12.5489 13.8748 12.6682 13.9942C14.6758 12.0823 16.6233 10.1228 16.6353 8.77264C16.6473 8.46187 16.5278 8.15111 16.3246 7.91218L11.4615 12.7874Z" fill="#FF6C37"/>
<path d="M9.82436 11.3296L10.84 12.3453C10.864 12.3691 10.864 12.3929 10.84 12.4169C10.8282 12.4289 10.8282 12.4289 10.8162 12.4289L8.71313 12.8829C8.60559 12.8949 8.51005 12.8233 8.4862 12.7157C8.48113 12.6879 8.48281 12.6593 8.49111 12.6322C8.49941 12.6052 8.51408 12.5805 8.53389 12.5603L9.75266 11.3416C9.77666 11.3177 9.81251 11.3057 9.82436 11.3296Z" fill="white"/>
<path d="M8.67731 13.0025C8.49808 13.0025 8.3667 12.8591 8.3667 12.6799C8.3667 12.5962 8.40255 12.5125 8.46224 12.4528L9.68101 11.234C9.71411 11.2051 9.75658 11.1891 9.80055 11.1891C9.84451 11.1891 9.88698 11.2051 9.92008 11.234L10.9358 12.2497C11.0075 12.3094 11.0075 12.4169 10.9358 12.4886C10.9118 12.5125 10.8879 12.5245 10.8521 12.5363L8.74901 12.9905C8.72516 12.9905 8.70131 13.0025 8.67731 13.0025ZM9.78855 11.4609L8.61762 12.632C8.59378 12.6559 8.58178 12.6917 8.60562 12.7275C8.61762 12.7634 8.65347 12.7754 8.68931 12.7634L10.6609 12.3332L9.78855 11.4609Z" fill="#FF6C37"/>
<path d="M18.9296 4.87725C18.1648 4.13633 16.9341 4.16033 16.1932 4.93694C15.4524 5.71356 15.4762 6.93233 16.253 7.67325C16.5596 7.96948 16.9556 8.15592 17.3792 8.20348C17.8029 8.25104 18.2304 8.15705 18.595 7.93617L17.2328 6.57402L18.9295 4.8771L18.9296 4.87725Z" fill="white"/>
<path d="M17.5911 8.33043C16.4561 8.33043 15.5361 7.41043 15.5361 6.27505C15.5361 5.13997 16.4561 4.21997 17.5913 4.21997C18.117 4.21997 18.6308 4.42305 19.0131 4.79351C19.037 4.81736 19.049 4.8412 19.049 4.8772C19.0494 4.89289 19.0464 4.90848 19.0402 4.92291C19.0341 4.93733 19.0248 4.95024 19.0131 4.96074L17.4001 6.57397L18.6667 7.84043C18.678 7.85121 18.6871 7.86419 18.6933 7.87858C18.6995 7.89297 18.7026 7.90846 18.7026 7.92412C18.7026 7.93978 18.6995 7.95528 18.6933 7.96967C18.6871 7.98406 18.678 7.99704 18.6667 8.00782L18.6427 8.03166C18.3262 8.22566 17.9625 8.329 17.5913 8.33043H17.5911ZM17.5911 4.47089C16.5875 4.47089 15.775 5.28336 15.787 6.2872C15.787 7.29089 16.5995 8.10336 17.6031 8.09136C17.8781 8.09136 18.1528 8.03166 18.4038 7.90028L17.1491 6.65751C17.1375 6.64701 17.1282 6.6341 17.1221 6.61968C17.1159 6.60525 17.1129 6.58966 17.1133 6.57397C17.1133 6.53812 17.1251 6.51412 17.1491 6.49028L18.7502 4.88905C18.4276 4.61428 18.0215 4.47089 17.5913 4.47089H17.5911Z" fill="#FF6C37"/>
<path d="M18.9653 4.9131L18.9415 4.8891L17.2328 6.57402L18.583 7.92418C18.7144 7.84048 18.8459 7.74495 18.9535 7.63741C19.1345 7.46009 19.2785 7.2486 19.3772 7.0152C19.4759 6.7818 19.5273 6.53113 19.5284 6.27773C19.5295 6.02432 19.4803 5.77322 19.3836 5.53897C19.287 5.30472 19.1448 5.09199 18.9653 4.9131Z" fill="white"/>
<path d="M18.595 8.05556C18.5793 8.05601 18.5637 8.05304 18.5492 8.04685C18.5348 8.04066 18.5218 8.0314 18.5113 8.01972L17.1492 6.65756C17.1375 6.64706 17.1283 6.63415 17.1221 6.61973C17.1159 6.60531 17.1129 6.58971 17.1133 6.57403C17.1133 6.53818 17.1252 6.51418 17.1492 6.49033L18.8459 4.79356C18.8567 4.78223 18.8697 4.7732 18.8841 4.76704C18.8984 4.76087 18.9139 4.75769 18.9296 4.75769C18.9452 4.75769 18.9607 4.76087 18.975 4.76704C18.9894 4.7732 19.0024 4.78223 19.0132 4.79356L19.049 4.81741C19.8496 5.61803 19.8496 6.90849 19.061 7.7211C18.9415 7.84049 18.8101 7.94803 18.6667 8.03172C18.6309 8.04372 18.6069 8.05556 18.595 8.05556ZM17.4001 6.57403L18.6069 7.78079C18.7026 7.7211 18.7981 7.63741 18.8698 7.56572C19.5509 6.88464 19.5867 5.77341 18.9295 5.05649L17.4001 6.57403Z" fill="#FF6C37"/>
<path d="M16.4681 7.88832C16.3302 7.75058 16.1432 7.67322 15.9483 7.67322C15.7534 7.67322 15.5664 7.75058 15.4285 7.88832L10.9238 12.3929L11.6765 13.1459L16.4442 8.9637C16.7548 8.70078 16.7787 8.23478 16.5158 7.92416C16.4978 7.91524 16.4816 7.90309 16.4681 7.88832Z" fill="white"/>
<path d="M11.6645 13.2654C11.6489 13.2658 11.6333 13.2628 11.6188 13.2566C11.6044 13.2504 11.5915 13.2412 11.581 13.2295L10.8282 12.4766C10.8169 12.4658 10.8079 12.4529 10.8017 12.4385C10.7955 12.4241 10.7924 12.4086 10.7924 12.393C10.7924 12.3774 10.7955 12.3619 10.8017 12.3475C10.8079 12.3331 10.8169 12.3202 10.8282 12.3094L15.3328 7.80477C15.4119 7.72524 15.506 7.66213 15.6095 7.61907C15.7131 7.576 15.8241 7.55383 15.9363 7.55383C16.0485 7.55383 16.1595 7.576 16.2631 7.61907C16.3666 7.66213 16.4607 7.72524 16.5398 7.80477C16.6193 7.88386 16.6824 7.97788 16.7254 8.08143C16.7685 8.18498 16.7906 8.29601 16.7906 8.40816C16.7906 8.5203 16.7685 8.63133 16.7254 8.73488C16.6824 8.83843 16.6193 8.93245 16.5398 9.01154L16.5039 9.04739L11.7362 13.2295C11.7244 13.2534 11.7004 13.2654 11.6645 13.2654ZM11.091 12.3931L11.6765 12.9785L16.3605 8.86816C16.6233 8.65308 16.6473 8.25877 16.4322 7.99585C16.2172 7.73293 15.8228 7.70908 15.5599 7.92416C15.5463 7.9389 15.5302 7.95105 15.5122 7.96L11.0908 12.3931H11.091Z" fill="#FF6C37"/>
<path d="M7.47052 17.5191C7.42282 17.5431 7.39882 17.5908 7.41082 17.6386L7.6139 18.4989C7.66159 18.6185 7.59006 18.7618 7.45852 18.7977C7.36298 18.8335 7.25544 18.7977 7.19575 18.726L5.88129 17.4235L10.1711 13.1339L11.6527 13.1577L12.6565 14.1615C12.4174 14.3646 10.9717 15.7626 7.47067 17.5191H7.47052Z" fill="white"/>
<path d="M7.37498 18.9171C7.27929 18.9171 7.18375 18.8812 7.12406 18.8095L5.8216 17.5072C5.80991 17.4967 5.80066 17.4838 5.79447 17.4693C5.78828 17.4549 5.7853 17.4392 5.78575 17.4235C5.78575 17.3877 5.7976 17.3638 5.8216 17.3398L10.1111 13.0501C10.1337 13.0284 10.1634 13.0157 10.1947 13.0143L11.6764 13.0383C11.7122 13.0383 11.7361 13.0501 11.7601 13.0741L12.7637 14.0778C12.7877 14.1038 12.8005 14.1381 12.7996 14.1734C12.7996 14.2092 12.7876 14.2332 12.7519 14.2571L12.6681 14.3287C11.4016 15.44 9.68083 16.5512 7.5419 17.6147L7.74513 18.4631C7.78098 18.6184 7.70929 18.7857 7.5659 18.8692C7.49421 18.9052 7.43452 18.9171 7.37483 18.9171H7.37498ZM6.06052 17.4235L7.29129 18.6423C7.32713 18.702 7.39883 18.726 7.45852 18.69C7.51837 18.6543 7.54221 18.5826 7.50621 18.5227L7.30313 17.6624C7.27929 17.5549 7.32713 17.4594 7.42267 17.4117C9.5376 16.3481 11.2464 15.2487 12.5011 14.1615L11.6168 13.2772L10.2427 13.2534L6.06052 17.4235Z" fill="#FF6C37"/>
<path d="M4.86559 18.4511L5.89328 17.4234L7.42267 18.9529L4.98513 18.7857C4.87759 18.7737 4.8059 18.6782 4.8179 18.5706C4.8179 18.5229 4.82974 18.4751 4.86559 18.4511Z" fill="white"/>
<path d="M7.42266 19.0605L4.97313 18.8932C4.79389 18.8812 4.67451 18.726 4.68636 18.5468C4.69836 18.4751 4.7222 18.4034 4.78205 18.3555L5.80974 17.3279C5.82052 17.3165 5.83348 17.3075 5.84784 17.3014C5.8622 17.2952 5.87766 17.2921 5.89328 17.2921C5.9089 17.2921 5.92436 17.2952 5.93872 17.3014C5.95308 17.3075 5.96604 17.3165 5.97682 17.3279L7.50636 18.8574C7.5422 18.8932 7.55405 18.9411 7.5302 18.9888C7.50636 19.0366 7.47051 19.0605 7.42266 19.0605ZM5.89328 17.5908L4.94928 18.5348C4.91343 18.5586 4.91343 18.6185 4.94928 18.6423C4.96128 18.6543 4.97312 18.6662 4.99697 18.6662L7.11205 18.8095L5.89328 17.5908ZM9.75266 13.6835C9.721 13.6835 9.69066 13.6708 9.66828 13.6484C9.64591 13.626 9.63332 13.5957 9.63328 13.564C9.6328 13.5483 9.63576 13.5327 9.64196 13.5183C9.64815 13.5038 9.65742 13.4909 9.66913 13.4805L10.8282 12.3214C10.839 12.3101 10.852 12.301 10.8663 12.2949C10.8807 12.2887 10.8962 12.2855 10.9118 12.2855C10.9275 12.2855 10.9429 12.2887 10.9573 12.2949C10.9717 12.301 10.9847 12.3101 10.9954 12.3214L11.7482 13.0742C11.784 13.11 11.7959 13.1459 11.784 13.1937C11.7761 13.2143 11.7633 13.2327 11.7466 13.2473C11.73 13.2618 11.71 13.2721 11.6885 13.2772L9.77666 13.6834H9.75266V13.6835ZM10.9117 12.5723L10.1231 13.3609L11.4136 13.086L10.9117 12.5722V12.5723Z" fill="#FF6C37"/>
<path d="M11.6527 13.1577L10.3382 13.4446C10.3155 13.4501 10.2919 13.4511 10.2687 13.4474C10.2456 13.4438 10.2234 13.4357 10.2034 13.4234C10.1835 13.4112 10.1661 13.3952 10.1523 13.3763C10.1385 13.3573 10.1286 13.3359 10.1232 13.3131C10.1113 13.2534 10.1232 13.1937 10.1709 13.1459L10.8999 12.4169L11.6527 13.1577Z" fill="white"/>
<path d="M10.3142 13.564C10.2749 13.5644 10.2359 13.5569 10.1996 13.542C10.1632 13.5271 10.1301 13.5051 10.1023 13.4773C10.0746 13.4495 10.0526 13.4164 10.0377 13.3801C10.0229 13.3437 10.0154 13.3047 10.0158 13.2654C10.0158 13.1817 10.0515 13.11 10.0993 13.0502L10.8282 12.3214C10.839 12.3101 10.852 12.301 10.8663 12.2949C10.8807 12.2887 10.8962 12.2855 10.9118 12.2855C10.9275 12.2855 10.943 12.2887 10.9573 12.2949C10.9717 12.301 10.9847 12.3101 10.9955 12.3214L11.7482 13.0742C11.7841 13.11 11.7959 13.1458 11.7841 13.1937C11.7761 13.2143 11.7633 13.2327 11.7466 13.2473C11.73 13.2618 11.71 13.2721 11.6885 13.2772L10.3741 13.564H10.3144H10.3142ZM10.9118 12.5723L10.2665 13.2175C10.2427 13.2414 10.2427 13.2652 10.2547 13.2892C10.2665 13.3131 10.2905 13.3251 10.3264 13.3251L11.4256 13.086L10.9118 12.5722V12.5723ZM18.9773 6.06C18.9535 5.98846 18.8698 5.95262 18.7981 5.97646C18.7264 6.00031 18.6905 6.08416 18.7144 6.1557C18.7144 6.1677 18.7264 6.1797 18.7264 6.19154C18.7981 6.33493 18.7741 6.51416 18.6787 6.6457C18.6308 6.70539 18.6427 6.78908 18.6905 6.83677C18.7502 6.88446 18.8339 6.87262 18.8818 6.81293C19.061 6.58585 19.0968 6.29908 18.9773 6.06016V6.06Z" fill="#FF6C37"/>
</svg>
