<svg width="85" height="24" viewBox="0 0 85 24" fill="none" xmlns="http://www.w3.org/2000/svg">
<path fill-rule="evenodd" clip-rule="evenodd" d="M78.3666 9.93915C78.291 9.95427 78.215 10.1211 78.215 10.212C78.1999 10.8189 78.1848 12.4269 78.1848 13.5191C78.1848 13.5495 78.2302 13.6102 78.2757 13.6102C78.5032 13.6253 79.0493 13.6404 79.5196 13.6404C80.1718 13.6404 80.5511 13.5495 80.7636 13.4586C81.3096 13.1854 81.5675 12.5938 81.5675 11.9413C81.5675 10.4701 80.536 9.90874 79.0037 9.90874C78.8975 9.89361 78.5944 9.89361 78.3666 9.93915V9.93915ZM82.2806 16.72C82.2806 15.2182 81.1731 14.3837 79.1708 14.3837C79.0797 14.3837 78.4425 14.3686 78.2908 14.3989C78.2453 14.4142 78.1848 14.4446 78.1848 14.4901C78.1848 15.567 78.1695 17.2813 78.215 17.9487C78.2453 18.2369 78.4578 18.6465 78.7157 18.7679C78.9886 18.9196 79.6106 18.9498 80.0354 18.9498C81.2338 18.9498 82.2806 18.2824 82.2806 16.72V16.72ZM75.2722 9.1049C75.4238 9.1049 75.8788 9.15027 77.0469 9.15027C78.1544 9.15027 79.0341 9.12002 80.1112 9.12002C81.4309 9.12002 83.2512 9.59016 83.2512 11.5623C83.2512 12.5331 82.5686 13.3069 81.6737 13.6861C81.6283 13.7012 81.6283 13.7315 81.6737 13.7466C82.9478 14.0653 84.0705 14.8541 84.0705 16.3406C84.0705 17.797 83.1603 18.7223 81.8405 19.2988C81.0365 19.6476 80.0354 19.769 79.019 19.769C78.2453 19.769 76.1671 19.6781 75.0143 19.7085C74.893 19.6628 75.1205 19.1167 75.2265 19.0258C75.4997 19.0105 75.712 18.9954 76.0003 18.9043C76.4099 18.7983 76.4553 18.6768 76.516 18.0549C76.5464 17.524 76.5464 15.6428 76.5464 14.308C76.5464 12.4725 76.5617 11.2286 76.5464 10.6218C76.5312 10.1517 76.3644 9.9998 76.0307 9.90874C75.7726 9.86337 75.348 9.80254 74.999 9.75717C74.9231 9.68123 75.181 9.16539 75.2722 9.1049ZM66.5191 18.5404C66.8834 18.8284 67.5963 18.9497 68.2335 18.9497C69.0526 18.9497 69.8717 18.7983 70.6606 18.085C71.4646 17.3571 72.0258 16.2345 72.0258 14.4446C72.0258 12.7302 71.3735 11.3346 70.0386 10.5156C69.2801 10.0452 68.3093 9.84824 67.1867 9.84824C66.853 9.84824 66.5344 9.86337 66.3373 9.95427C66.2916 9.98468 66.1856 10.1211 66.1856 10.1969C66.1552 10.5004 66.1552 12.8364 66.1552 14.2018C66.1552 15.6125 66.1552 17.5846 66.1856 17.8121C66.1856 18.0398 66.2916 18.3886 66.5193 18.5404H66.5191ZM63.0756 9.10474C63.364 9.10474 64.4712 9.15027 65.0022 9.15027C65.9581 9.15027 66.6406 9.1049 68.4457 9.1049C69.9626 9.1049 71.2369 9.51438 72.1471 10.288C73.2544 11.2437 73.8311 12.5635 73.8311 14.1714C73.8311 16.4621 72.7843 17.7819 71.7375 18.5404C70.691 19.3139 69.3257 19.769 67.384 19.769C66.3525 19.769 64.5776 19.7387 63.106 19.7234H63.0909C63.0151 19.587 63.2122 19.056 63.3335 19.0409C63.7281 18.9954 63.8343 18.9801 64.0315 18.9045C64.3499 18.783 64.4108 18.6161 64.4563 18.0549C64.5017 17.0081 64.4865 15.7491 64.4865 14.3231C64.4865 13.3069 64.5017 11.3195 64.4712 10.6823C64.4259 10.1515 64.1984 10.0149 63.7432 9.92386C63.5157 9.87849 63.2122 9.81767 62.7876 9.7723C62.7268 9.66594 62.9998 9.1958 63.0756 9.1049V9.10474Z" fill="white"/>
<path fill-rule="evenodd" clip-rule="evenodd" d="M44.7206 19.1318C44.3413 19.0863 44.0683 19.0258 43.7346 18.8741C43.6891 18.8437 43.6131 18.6921 43.6131 18.6313C43.5829 18.1003 43.5829 16.5834 43.5829 15.5672C43.5829 14.7479 43.4464 14.0349 43.0975 13.5344C42.6878 12.9577 42.0964 12.6242 41.3377 12.6242C40.6703 12.6242 39.7753 13.0792 39.0319 13.7164C39.0168 13.7315 38.8955 13.8379 38.9106 13.6708C38.9106 13.504 38.941 13.1703 38.9561 12.9426C38.9714 12.7302 38.85 12.6242 38.85 12.6242C38.3645 12.8668 36.9993 13.1854 36.4986 13.2308C36.1347 13.3069 36.0436 13.6557 36.423 13.777H36.4381C36.8474 13.8983 37.1206 14.0349 37.3329 14.1715C37.4846 14.2929 37.4695 14.4597 37.4695 14.5963C37.4846 15.7339 37.4846 17.4785 37.4392 18.4342C37.4241 18.8134 37.3179 18.9499 37.0447 19.0105L37.0751 18.9954C36.8627 19.0409 36.6959 19.0863 36.438 19.1167C36.3469 19.2078 36.3469 19.6932 36.438 19.7994C36.6048 19.7994 37.4846 19.7539 38.213 19.7539C39.2141 19.7539 39.7299 19.7994 39.9876 19.7994C40.0938 19.6781 40.1243 19.2229 40.0636 19.1167C39.7753 19.1016 39.5629 19.0713 39.3658 19.0105C39.0927 18.9497 39.0168 18.8134 39.0015 18.4948C38.9714 17.6907 38.9714 15.9918 38.9714 14.8389C38.9714 14.5204 39.0623 14.3686 39.1532 14.2776C39.5022 13.9743 40.0636 13.7619 40.5641 13.7619C41.0496 13.7619 41.368 13.9136 41.6108 14.1109C41.9445 14.3838 42.0507 14.7783 42.0962 15.0665C42.172 15.7187 42.1417 17.0082 42.1417 18.1307C42.1417 18.7375 42.0962 18.8892 41.8689 18.965C41.7625 19.0105 41.4895 19.0713 41.1709 19.1014C41.0647 19.2078 41.0951 19.6781 41.1709 19.7843C41.6108 19.7843 42.1266 19.7387 42.8851 19.7387C43.8255 19.7387 44.4324 19.7843 44.6752 19.7843C44.7508 19.6932 44.7812 19.2533 44.7206 19.1318V19.1318ZM48.9226 13.3373C48.1187 13.3373 47.618 13.9592 47.618 14.9299C47.618 15.916 48.0579 17.0537 49.3018 17.0537C49.5142 17.0537 49.9087 16.9626 50.0905 16.7502C50.3788 16.4774 50.5761 15.9311 50.5761 15.3546C50.5761 14.0956 49.9541 13.3371 48.9226 13.3371V13.3373ZM48.8164 20.042C48.5131 20.042 48.3005 20.1331 48.1641 20.209C47.5269 20.6183 47.2388 21.0129 47.2388 21.4833C47.2388 21.9231 47.4056 22.2719 47.7697 22.5753C48.2096 22.9546 48.8164 23.1367 49.59 23.1367C51.1373 23.1367 51.82 22.3023 51.82 21.4833C51.82 20.9067 51.5316 20.5274 50.9402 20.3152C50.5154 20.1331 49.7418 20.042 48.8164 20.042V20.042ZM48.9226 23.9862C47.9972 23.9862 47.3297 23.789 46.7533 23.3491C46.192 22.9243 45.9493 22.2872 45.9493 21.8473C45.9493 21.726 45.9798 21.3921 46.2528 21.0888C46.4195 20.9067 46.7838 20.5579 47.6484 19.9662C47.6787 19.9511 47.6938 19.936 47.6938 19.9054C47.6938 19.8752 47.6634 19.8448 47.6331 19.8298C46.9202 19.5568 46.7078 19.1167 46.647 18.8741V18.8437C46.632 18.7526 46.6016 18.6617 46.7382 18.5706C46.8444 18.4948 46.9961 18.4038 47.1628 18.2977C47.4207 18.1459 47.6938 17.979 47.8606 17.8424C47.891 17.8122 47.891 17.7819 47.891 17.7515C47.891 17.7211 47.8606 17.6907 47.8302 17.6757C46.7686 17.3267 46.2377 16.5379 46.2377 15.3546C46.2377 14.581 46.5865 13.8832 47.2084 13.4433C47.6331 13.1096 48.695 12.7 49.3929 12.7H49.4384C50.1513 12.7151 50.5457 12.8668 51.1069 13.0641C51.4103 13.1703 51.6987 13.2157 52.0932 13.2157C52.6846 13.2157 52.9426 13.0337 53.1548 12.8215C53.1701 12.8517 53.2005 12.9277 53.2156 13.1248C53.2307 13.322 53.1701 13.6102 53.0183 13.8226C52.897 13.9894 52.624 14.1109 52.3509 14.1109H52.275C52.002 14.0805 51.8805 14.0501 51.8805 14.0501L51.82 14.0805C51.8049 14.1109 51.82 14.1411 51.8351 14.1867L51.8504 14.2171C51.8806 14.3535 51.9413 14.763 51.9413 14.8694C51.9413 16.1132 51.4407 16.6592 50.9098 17.0688C50.3939 17.448 49.8025 17.6907 49.1349 17.7515C49.1198 17.7515 49.0593 17.7515 48.9226 17.7666C48.8468 17.7666 48.7406 17.7819 48.7253 17.7819H48.7102C48.5889 17.8122 48.2856 17.9639 48.2856 18.2216C48.2856 18.4491 48.422 18.7223 49.0743 18.7679C49.2107 18.783 49.3472 18.783 49.499 18.7983C50.3637 18.8588 51.4407 18.9347 51.9413 19.1016C52.6391 19.3593 53.079 19.9814 53.079 20.7247C53.079 21.8474 52.2752 22.8941 50.9402 23.5462C50.2879 23.8345 49.6355 23.9862 48.9226 23.9862V23.9862ZM57.5691 13.4131C57.2507 13.4131 56.9624 13.4887 56.75 13.6404C56.1586 14.0045 55.8551 14.7328 55.8551 15.7945C55.8551 17.7819 56.8562 19.1775 58.2822 19.1775C58.707 19.1775 59.0407 19.056 59.3289 18.8134C59.7687 18.4491 59.9964 17.7211 59.9964 16.7047C59.9964 14.7328 59.0103 13.4129 57.5693 13.4129L57.5691 13.4131ZM57.8423 19.9056C55.2635 19.9056 54.3382 18.0094 54.3382 16.2346C54.3382 14.9907 54.8387 14.0349 55.8398 13.3523C56.5529 12.9124 57.4024 12.6697 58.1609 12.6697C60.1329 12.6697 61.5133 14.0805 61.5133 16.1132C61.5133 17.4936 60.9673 18.5857 59.9205 19.2533C59.4199 19.587 58.5553 19.9056 57.8422 19.9056H57.8423V19.9056ZM30.8101 13.4129C30.4915 13.4129 30.2034 13.4887 29.9908 13.6404C29.3994 14.0045 29.0959 14.7328 29.0959 15.7945C29.0959 17.7819 30.097 19.1775 31.523 19.1775C31.9478 19.1775 32.2815 19.056 32.5698 18.8134C33.0096 18.4491 33.2372 17.7211 33.2372 16.7047C33.2372 14.7328 32.2664 13.4129 30.8101 13.4129ZM31.0832 19.9056C28.5043 19.9056 27.579 18.0094 27.579 16.2346C27.579 14.9907 28.0795 14.0349 29.0806 13.3523C29.7937 12.9124 30.6433 12.6697 31.4017 12.6697C33.3738 12.6697 34.7542 14.0805 34.7542 16.1132C34.7542 17.4936 34.2081 18.5857 33.1613 19.2533C32.6759 19.587 31.8112 19.9056 31.0832 19.9056ZM13.7443 19.7539C13.7139 19.7085 13.6835 19.5719 13.6988 19.405C13.6988 19.2835 13.7292 19.2078 13.7443 19.1775C14.0629 19.1318 14.2297 19.0863 14.4117 19.0409C14.7152 18.965 14.8365 18.7983 14.8516 18.4191C14.8973 17.5089 14.8973 15.7794 14.882 14.581V14.5506C14.882 14.4142 14.882 14.2472 14.7152 14.1259C14.4724 13.9743 14.1842 13.8379 13.805 13.7313C13.6685 13.6861 13.5775 13.6102 13.5926 13.5193C13.5926 13.4282 13.6836 13.322 13.8809 13.2916C14.3815 13.2461 15.6858 12.9277 16.2017 12.7C16.2321 12.7302 16.2776 12.8215 16.2776 12.9428L16.2625 13.1095C16.2472 13.2765 16.2321 13.4737 16.2321 13.6708C16.2321 13.7315 16.2929 13.777 16.3534 13.777C16.3838 13.777 16.4142 13.7619 16.4445 13.7466C17.4153 12.9882 18.2951 12.7151 18.7501 12.7151C19.4936 12.7151 20.0701 13.0641 20.51 13.7922C20.5403 13.8379 20.5707 13.853 20.6162 13.853C20.6464 13.853 20.6918 13.8379 20.7071 13.8074C21.6022 13.1248 22.4972 12.7151 23.0887 12.7151C24.4994 12.7151 25.3338 13.7619 25.3338 15.5368C25.3338 16.0373 25.3338 16.6896 25.3187 17.2814C25.3187 17.8122 25.3036 18.2976 25.3036 18.6466C25.3036 18.7222 25.4096 18.965 25.5765 19.0105C25.7889 19.1167 26.0772 19.1622 26.4564 19.2229H26.4715C26.502 19.3291 26.4413 19.7234 26.3806 19.7994C26.2896 19.7994 26.153 19.7994 26.0014 19.7843C25.6174 19.7642 25.2329 19.7541 24.8484 19.7539C23.908 19.7539 23.4226 19.769 22.9521 19.7994C22.922 19.6781 22.9067 19.314 22.9521 19.2229C23.2253 19.1775 23.3617 19.1318 23.5287 19.0865C23.8322 18.9954 23.908 18.8588 23.9233 18.4644C23.9233 18.1763 23.9838 15.7187 23.8927 15.1271C23.8018 14.5204 23.3466 13.8074 22.3453 13.8074C21.9661 13.8074 21.3747 13.9592 20.7982 14.3989C20.7679 14.4293 20.7373 14.5051 20.7373 14.5506V14.5659C20.7982 14.8843 20.7982 15.2486 20.7982 15.8098V16.7958C20.7982 17.4785 20.7829 18.1156 20.7982 18.6009C20.7982 18.9347 20.9954 19.0105 21.1623 19.0713C21.2533 19.0863 21.3138 19.1016 21.3898 19.1167C21.5262 19.1471 21.6628 19.1775 21.8752 19.2229C21.9056 19.2837 21.9056 19.4808 21.8601 19.6477C21.8448 19.7387 21.8144 19.7841 21.7993 19.7994C21.2836 19.7843 20.7526 19.769 19.979 19.769C19.7515 19.769 19.357 19.7843 19.0233 19.7843C18.7501 19.7843 18.4924 19.7994 18.3408 19.7994C18.3255 19.769 18.2951 19.6629 18.2951 19.4959C18.2951 19.3595 18.3255 19.2533 18.3559 19.2229C18.4317 19.2078 18.4924 19.1926 18.5683 19.1926C18.7501 19.1622 18.902 19.1318 19.0536 19.1016C19.3116 19.0258 19.4026 18.8892 19.4177 18.5555C19.4632 17.797 19.5087 15.6278 19.4026 15.0816C19.2206 14.2018 18.72 13.7619 17.9159 13.7619C17.4457 13.7619 16.854 13.9894 16.3687 14.3537C16.2927 14.4142 16.2321 14.5657 16.2321 14.7023V15.5974C16.2321 16.6896 16.2321 18.0549 16.2472 18.6466C16.2625 18.8284 16.323 19.0409 16.672 19.1167C16.7479 19.1318 16.8692 19.1622 17.021 19.1775L17.2938 19.2229C17.3244 19.314 17.3091 19.6781 17.2485 19.7994C17.0967 19.7994 16.9148 19.7843 16.7022 19.7843C16.3082 19.7647 15.9137 19.7545 15.5192 19.7539C14.9882 19.7539 14.609 19.769 14.3055 19.7843C14.0931 19.7539 13.9263 19.7539 13.7443 19.7539V19.7539Z" fill="white"/>
<path fill-rule="evenodd" clip-rule="evenodd" d="M5.76495 23.3946L5.14309 23.1821C5.14309 23.1821 5.21903 20.0118 4.08117 19.7842C3.32287 18.9043 4.20281 -17.533 6.93323 19.6628C6.93323 19.6628 5.99262 20.1329 5.82577 20.9371C5.64364 21.7259 5.76495 23.3946 5.76495 23.3946V23.3946Z" fill="white"/>
<path fill-rule="evenodd" clip-rule="evenodd" d="M5.76495 23.3946L5.14309 23.1821C5.14309 23.1821 5.21903 20.0118 4.08117 19.7842C3.32287 18.9043 4.20281 -17.533 6.93323 19.6628C6.93323 19.6628 5.99262 20.1329 5.82577 20.9371C5.64364 21.7259 5.76495 23.3946 5.76495 23.3946V23.3946Z" fill="#A6A385"/>
<path fill-rule="evenodd" clip-rule="evenodd" d="M6.09879 20.3303C6.09879 20.3303 11.5448 16.7502 10.2704 9.30185C9.04175 3.88657 6.14433 2.11172 5.82575 1.42903C5.47693 0.943608 5.14307 0.0942383 5.14307 0.0942383L5.37074 15.1574C5.37074 15.1726 4.90044 19.769 6.09896 20.3305" fill="white"/>
<path fill-rule="evenodd" clip-rule="evenodd" d="M6.09879 20.3303C6.09879 20.3303 11.5448 16.7502 10.2704 9.30185C9.04175 3.88657 6.14433 2.11172 5.82575 1.42903C5.47693 0.943608 5.14307 0.0942383 5.14307 0.0942383L5.37074 15.1574C5.37074 15.1726 4.90044 19.769 6.09896 20.3305" fill="#499D4A"/>
<path fill-rule="evenodd" clip-rule="evenodd" d="M4.82468 20.5274C4.82468 20.5274 -0.287651 17.0384 0.0158012 10.8949C0.303966 4.75119 3.91432 1.73245 4.61213 1.18637C5.06731 0.700948 5.08243 0.518811 5.11284 0.0333862C5.43142 0.716071 5.37076 10.2426 5.41613 11.365C5.55257 15.6883 5.1735 19.7085 4.82468 20.5274Z" fill="white"/>
<path fill-rule="evenodd" clip-rule="evenodd" d="M4.82468 20.5274C4.82468 20.5274 -0.287651 17.0384 0.0158012 10.8949C0.303966 4.75119 3.91432 1.73245 4.61213 1.18637C5.06731 0.700948 5.08243 0.518811 5.11284 0.0333862C5.43142 0.716071 5.37076 10.2426 5.41613 11.365C5.55257 15.6883 5.1735 19.7085 4.82468 20.5274Z" fill="#58AA50"/>
</svg>
