<svg width="40" height="24" viewBox="0 0 40 24" fill="none" xmlns="http://www.w3.org/2000/svg">
<path d="M19.5191 23.9307C19.3866 23.9307 19.263 23.8954 19.1481 23.8336L17.9732 23.1358C17.7965 23.0385 17.8849 23.0032 17.9379 22.9856C18.1764 22.9061 18.2206 22.8883 18.4679 22.7471C18.4944 22.7294 18.5298 22.7382 18.5563 22.7559L19.4573 23.2947C19.4926 23.3124 19.5368 23.3124 19.5633 23.2947L23.088 21.2541C23.1233 21.2365 23.141 21.2011 23.141 21.157V17.0846C23.141 17.0404 23.1233 17.0051 23.088 16.9874L19.5633 14.9557C19.528 14.9379 19.4838 14.9379 19.4573 14.9557L15.9326 16.9874C15.8973 17.0051 15.8796 17.0492 15.8796 17.0845V21.1569C15.8796 21.1923 15.8973 21.2364 15.9326 21.2541L16.8955 21.8106C17.4167 22.0756 17.7436 21.7665 17.7436 21.4573V17.4379C17.7436 17.3849 17.7877 17.3319 17.8496 17.3319H18.3001C18.3531 17.3319 18.4061 17.3761 18.4061 17.4379V21.4573C18.4061 22.1551 18.0262 22.5615 17.3637 22.5615C17.1605 22.5615 17.0015 22.5615 16.551 22.3406L15.6234 21.8106C15.3938 21.6782 15.2524 21.4308 15.2524 21.1658V17.0934C15.2524 16.8284 15.3938 16.581 15.6234 16.4485L19.1481 14.4079C19.369 14.2843 19.6694 14.2843 19.8902 14.4079L23.4148 16.4485C23.6445 16.581 23.7859 16.8284 23.7859 17.0934V21.1658C23.7859 21.4308 23.6445 21.6782 23.4148 21.8106L19.8902 23.8512C19.7753 23.9043 19.6428 23.9307 19.5192 23.9307H19.5191ZM20.6057 21.1305C19.0598 21.1305 18.7418 20.4238 18.7418 19.8231C18.7418 19.77 18.7859 19.7171 18.8478 19.7171H19.3071C19.3601 19.7171 19.4043 19.7524 19.4043 19.8054C19.475 20.2736 19.6781 20.5033 20.6145 20.5033C21.3565 20.5033 21.6747 20.3354 21.6747 19.9379C21.6747 19.7082 21.5862 19.5404 20.429 19.4255C19.4661 19.3283 18.8654 19.1164 18.8654 18.3478C18.8654 17.6323 19.4662 17.2082 20.4732 17.2082C21.6039 17.2082 22.1605 17.597 22.2312 18.4449C22.2312 18.4715 22.2223 18.498 22.2046 18.5245C22.1869 18.5421 22.1605 18.5598 22.1339 18.5598H21.6746C21.6304 18.5598 21.5862 18.5245 21.5774 18.4803C21.4714 17.9945 21.1976 17.8354 20.4732 17.8354C19.6605 17.8354 19.5633 18.1182 19.5633 18.3301C19.5633 18.5863 19.6781 18.6658 20.7735 18.8071C21.8601 18.9485 22.3725 19.1517 22.3725 19.9114C22.3636 20.6888 21.7276 21.1305 20.6057 21.1305Z" fill="#539E43"/>
<path d="M8.58289 8.00348C8.58289 7.8445 8.49454 7.69424 8.35321 7.61475L4.60768 5.45933C4.54577 5.42394 4.47515 5.40629 4.40452 5.39742H4.36913C4.29851 5.39742 4.22781 5.42394 4.16598 5.45933L0.420447 7.61475C0.279046 7.69424 0.190765 7.84443 0.190765 8.00348L0.199632 13.7984C0.199632 13.8779 0.24381 13.9574 0.314434 13.9928C0.385135 14.037 0.473415 14.037 0.535326 13.9928L2.76144 12.7207C2.90277 12.6412 2.99112 12.491 2.99112 12.332V9.62004C2.99112 9.46106 3.0794 9.31087 3.2208 9.23138L4.16598 8.68366C4.23668 8.63948 4.31617 8.62175 4.39566 8.62175C4.47515 8.62175 4.55464 8.63948 4.61655 8.68366L5.56172 9.23138C5.70312 9.31087 5.7914 9.46099 5.7914 9.62004V12.332C5.7914 12.491 5.87976 12.6412 6.02108 12.7207L8.2472 13.9928C8.28159 14.0144 8.3214 14.0259 8.36204 14.0259C8.40268 14.0259 8.44249 14.0144 8.47688 13.9928C8.54758 13.9574 8.59176 13.8779 8.59176 13.7984L8.58289 8.00348ZM26.5862 0.0265414C26.5156 -0.00884714 26.4272 -0.00884714 26.3653 0.0265414C26.2947 0.0707197 26.2505 0.141344 26.2505 0.220834V5.96287C26.2505 6.01584 26.224 6.06881 26.171 6.1042C26.118 6.13064 26.065 6.13064 26.012 6.1042L25.0756 5.56534C25.007 5.52626 24.9293 5.5057 24.8503 5.5057C24.7713 5.5057 24.6937 5.52626 24.6251 5.56534L20.8795 7.72962C20.7382 7.80911 20.6498 7.95931 20.6498 8.11829V12.438C20.6498 12.597 20.7382 12.7472 20.8795 12.8267L24.6251 14.991C24.6937 15.0301 24.7713 15.0506 24.8503 15.0506C24.9293 15.0506 25.007 15.0301 25.0756 14.991L28.8212 12.8267C28.9625 12.7472 29.0508 12.597 29.0508 12.438V1.66962C29.0508 1.50178 28.9625 1.35166 28.8212 1.2721L26.5863 0.0265414H26.5862ZM26.2417 11.0158C26.2417 11.06 26.224 11.0953 26.1887 11.1129L24.9078 11.8549C24.8899 11.8637 24.8703 11.8682 24.8503 11.8682C24.8304 11.8682 24.8108 11.8637 24.7929 11.8549L23.512 11.1129C23.4767 11.0953 23.459 11.0511 23.459 11.0158V9.53169C23.459 9.48751 23.4767 9.4522 23.512 9.43454L24.7929 8.69245C24.8108 8.68372 24.8304 8.67919 24.8503 8.67919C24.8703 8.67919 24.8899 8.68372 24.9078 8.69245L26.1887 9.43454C26.224 9.45212 26.2417 9.49638 26.2417 9.53169V11.0158ZM39.0507 9.49638C39.1921 9.41689 39.2716 9.26669 39.2716 9.10764V8.05645C39.2716 7.89747 39.1832 7.74728 39.0507 7.66779L35.3317 5.51238C35.263 5.47329 35.1854 5.45273 35.1064 5.45273C35.0274 5.45273 34.9497 5.47329 34.8811 5.51238L31.1356 7.67658C30.9942 7.75607 30.9059 7.90626 30.9059 8.06524V12.385C30.9059 12.544 30.9942 12.6942 31.1356 12.7737L34.8546 14.8938C34.996 14.9733 35.1638 14.9733 35.2963 14.8938L37.5489 13.6395C37.6196 13.6041 37.6638 13.5246 37.6638 13.4451C37.6638 13.3656 37.6196 13.2862 37.5489 13.2508L33.7857 11.0865C33.715 11.0423 33.6708 10.9717 33.6708 10.8922V9.54063C33.6708 9.46114 33.715 9.38165 33.7857 9.34626L34.9606 8.67487C34.995 8.65323 35.0348 8.64174 35.0754 8.64174C35.1161 8.64174 35.1559 8.65323 35.1903 8.67487L36.3652 9.34626C36.4359 9.39044 36.48 9.46106 36.48 9.54063V10.6007C36.48 10.6802 36.5242 10.7597 36.5949 10.795C36.6293 10.8166 36.6691 10.8281 36.7097 10.8281C36.7503 10.8281 36.7902 10.8166 36.8246 10.795L39.0507 9.49638V9.49638Z" fill="white"/>
<path d="M35.0489 9.29316C35.0621 9.28452 35.0774 9.27991 35.0931 9.27991C35.1088 9.27991 35.1242 9.28452 35.1373 9.29316L35.8529 9.70835C35.8793 9.72608 35.897 9.75253 35.897 9.78784V10.6183C35.897 10.6536 35.8794 10.6801 35.8529 10.6978L35.1373 11.113C35.1242 11.1216 35.1088 11.1262 35.0931 11.1262C35.0774 11.1262 35.0621 11.1216 35.0489 11.113L34.3335 10.6978C34.3069 10.6801 34.2893 10.6536 34.2893 10.6183V9.78791C34.2893 9.75252 34.3069 9.726 34.3335 9.70842L35.0489 9.29316V9.29316Z" fill="#539E43"/>
<path d="M18.5739 7.67657L14.8373 5.53002C14.8006 5.51148 14.7621 5.49668 14.7224 5.48584L10.5352 12.6589C10.5698 12.7013 10.6117 12.7372 10.6589 12.7649L14.3956 14.9116C14.5016 14.9734 14.6252 14.9911 14.74 14.9557L18.6712 7.765C18.6446 7.72969 18.6092 7.70309 18.5739 7.67664V7.67657Z" fill="url(#paint0_linear_1010_90)"/>
<path fill-rule="evenodd" clip-rule="evenodd" d="M14.2719 4.74377L14.2189 4.7703H14.2896L14.2719 4.74377V4.74377Z" fill="url(#paint1_linear_1010_90)"/>
<path fill-rule="evenodd" clip-rule="evenodd" d="M18.5828 12.756C18.6888 12.6942 18.7683 12.5882 18.8037 12.4734L14.7047 5.47697C14.5986 5.45932 14.4838 5.46811 14.3867 5.52994L10.6765 7.66778L14.6781 14.9645C14.7363 14.9549 14.7929 14.9371 14.846 14.9115L18.5827 12.7561L18.5828 12.756Z" fill="url(#paint2_linear_1010_90)"/>
<path fill-rule="evenodd" clip-rule="evenodd" d="M18.9274 12.6854L18.9008 12.6412V12.7031L18.9273 12.6854H18.9274Z" fill="url(#paint3_linear_1010_90)"/>
<path fill-rule="evenodd" clip-rule="evenodd" d="M18.5828 12.7561L14.8549 14.9027C14.8023 14.9295 14.7456 14.9474 14.6871 14.9556L14.7578 15.0882L18.892 12.6943V12.6413L18.786 12.4645C18.7683 12.5882 18.6888 12.6942 18.5828 12.7561V12.7561Z" fill="url(#paint4_linear_1010_90)"/>
<path fill-rule="evenodd" clip-rule="evenodd" d="M18.5828 12.7561L14.8549 14.9027C14.8023 14.9295 14.7456 14.9474 14.6871 14.9556L14.7578 15.0882L18.892 12.6943V12.6413L18.786 12.4645C18.7683 12.5882 18.6888 12.6942 18.5828 12.7561V12.7561Z" fill="url(#paint5_linear_1010_90)"/>
<defs>
<linearGradient id="paint0_linear_1010_90" x1="14.0562" y1="10.7202" x2="24.2653" y2="5.17355" gradientUnits="userSpaceOnUse">
<stop offset="0.1376" stop-color="#41873F"/>
<stop offset="0.4032" stop-color="#54A044"/>
<stop offset="0.7136" stop-color="#66B848"/>
<stop offset="0.9081" stop-color="#6CC04A"/>
</linearGradient>
<linearGradient id="paint1_linear_1010_90" x1="11.1017" y1="4.74734" x2="17.9817" y2="4.74734" gradientUnits="userSpaceOnUse">
<stop offset="0.09192" stop-color="#6CC04A"/>
<stop offset="0.2864" stop-color="#66B848"/>
<stop offset="0.5968" stop-color="#54A044"/>
<stop offset="0.8624" stop-color="#41873F"/>
</linearGradient>
<linearGradient id="paint2_linear_1010_90" x1="10.3198" y1="10.2164" x2="18.9255" y2="10.2164" gradientUnits="userSpaceOnUse">
<stop offset="0.09192" stop-color="#6CC04A"/>
<stop offset="0.2864" stop-color="#66B848"/>
<stop offset="0.5968" stop-color="#54A044"/>
<stop offset="0.8624" stop-color="#41873F"/>
</linearGradient>
<linearGradient id="paint3_linear_1010_90" x1="16.3245" y1="12.6636" x2="18.9083" y2="12.6636" gradientUnits="userSpaceOnUse">
<stop offset="0.09192" stop-color="#6CC04A"/>
<stop offset="0.2864" stop-color="#66B848"/>
<stop offset="0.5968" stop-color="#54A044"/>
<stop offset="0.8624" stop-color="#41873F"/>
</linearGradient>
<linearGradient id="paint4_linear_1010_90" x1="10.3198" y1="13.7836" x2="18.9255" y2="13.7836" gradientUnits="userSpaceOnUse">
<stop offset="0.09192" stop-color="#6CC04A"/>
<stop offset="0.2864" stop-color="#66B848"/>
<stop offset="0.5968" stop-color="#54A044"/>
<stop offset="0.8624" stop-color="#41873F"/>
</linearGradient>
<linearGradient id="paint5_linear_1010_90" x1="20.1792" y1="6.92684" x2="17.9991" y2="18.3507" gradientUnits="userSpaceOnUse">
<stop stop-color="#41873F"/>
<stop offset="0.3288" stop-color="#418B3D"/>
<stop offset="0.6352" stop-color="#419637"/>
<stop offset="0.9319" stop-color="#3FA92D"/>
<stop offset="1" stop-color="#3FAE2A"/>
</linearGradient>
</defs>
</svg>
