<svg width="25" height="24" viewBox="0 0 25 24" fill="none" xmlns="http://www.w3.org/2000/svg">
<path d="M0.549988 0H24.55V24H0.549988V0Z" fill="#F7DF1E"/>
<path d="M6.86049 20.0561L8.69705 18.9446C9.05143 19.5728 9.37374 20.1044 10.1469 20.1044C10.888 20.1044 11.3553 19.8145 11.3553 18.6869V11.0183H13.6107V18.7188C13.6107 21.0548 12.2414 22.1181 10.2436 22.1181C8.43934 22.1181 7.39205 21.1837 6.8604 20.0559L6.86049 20.0561ZM14.8357 19.8144L16.6721 18.7512C17.1556 19.5407 17.7839 20.1206 18.8954 20.1206C19.83 20.1206 20.4258 19.6534 20.4258 19.0089C20.4258 18.2357 19.8136 17.9617 18.7826 17.5108L18.2189 17.2689C16.5916 16.5764 15.5123 15.7064 15.5123 13.8698C15.5123 12.1782 16.8011 10.8893 18.8149 10.8893C20.2487 10.8893 21.2798 11.3888 22.0208 12.6937L20.2647 13.8216C19.878 13.1288 19.4593 12.855 18.8148 12.855C18.1543 12.855 17.7354 13.2739 17.7354 13.8216C17.7354 14.4982 18.1543 14.7722 19.1208 15.1911L19.6846 15.4327C21.6018 16.2544 22.6812 17.092 22.6812 18.9768C22.6812 21.0068 21.0863 22.1183 18.9436 22.1183C16.8494 22.1183 15.4961 21.1195 14.8356 19.8145" fill="black"/>
</svg>
