<svg width="28" height="24" viewBox="0 0 28 24" fill="none" xmlns="http://www.w3.org/2000/svg">
<path d="M8.08667 0C7.35888 0.00157895 6.64646 0.414737 6.28015 1.04495L0.581832 10.9435C0.221095 11.5754 0.221095 12.4014 0.581832 13.0333L6.28015 22.9319C6.64646 23.5621 7.35888 23.9754 8.08667 23.9768H19.4833C20.2111 23.9753 20.9235 23.5621 21.2898 22.9319L26.9881 13.0333C27.3489 12.4014 27.3488 11.5754 26.9881 10.9435L21.2898 1.04495C20.9235 0.414632 20.2111 0.00147368 19.4833 0H8.08667ZM8.19015 5.79084C8.20583 5.78926 8.22225 5.78926 8.23794 5.79084H10.2036C10.2473 5.79226 10.2899 5.8047 10.3275 5.827C10.3651 5.84931 10.3964 5.88076 10.4186 5.91842L13.7532 11.8607C13.77 11.8902 13.7808 11.9228 13.7848 11.9565C13.789 11.9228 13.7997 11.8902 13.8166 11.8607L17.1432 5.91842C17.1661 5.87969 17.1987 5.84757 17.2378 5.8252C17.2768 5.80284 17.321 5.791 17.366 5.79084H19.3318C19.5058 5.79232 19.6363 6.01158 19.5547 6.16568L16.2996 11.9884L19.5547 17.8032C19.6439 17.9581 19.5105 18.1875 19.3318 18.186H17.366C17.3202 18.185 17.2755 18.172 17.2364 18.1482C17.1973 18.1244 17.1651 18.0906 17.1432 18.0504L13.8166 12.108C13.7997 12.0785 13.789 12.046 13.7849 12.0123C13.7808 12.046 13.77 12.0786 13.7532 12.1081L10.4185 18.0504C10.3973 18.0895 10.3664 18.1225 10.3288 18.1462C10.2912 18.17 10.2481 18.1837 10.2037 18.186H8.23783C8.0592 18.1876 7.92573 17.9581 8.01499 17.8032L11.27 11.9884L8.01499 6.16568C7.93699 6.02505 8.03215 5.82084 8.19004 5.79084H8.19015Z" fill="#3498DB"/>
</svg>
