<svg width="28" height="24" viewBox="0 0 28 24" fill="none" xmlns="http://www.w3.org/2000/svg">
<path d="M22.7061 7.77093C22.4193 7.67254 22.1301 7.58139 21.8387 7.49756C21.8877 7.29756 21.9327 7.09998 21.9727 6.90588C22.6294 3.7184 22.2001 1.15051 20.7339 0.305034C19.3281 -0.505492 17.029 0.339666 14.7071 2.3604C14.4783 2.55991 14.2546 2.76517 14.0361 2.97598C13.8898 2.8358 13.741 2.69834 13.5897 2.56367C11.1562 0.403034 8.71704 -0.507597 7.25241 0.340297C5.84788 1.15335 5.43199 3.56735 6.02315 6.58819C6.08196 6.88738 6.14837 7.18502 6.2223 7.48082C5.87704 7.57893 5.54388 7.68335 5.22504 7.79451C2.37199 8.78925 0.549988 10.3481 0.549988 11.965C0.549988 13.635 2.50599 15.3101 5.47757 16.3258C5.71848 16.4078 5.9614 16.4838 6.20609 16.5537C6.12662 16.8723 6.05607 17.193 5.99451 17.5156C5.43093 20.484 5.87104 22.8409 7.27178 23.6488C8.71851 24.4831 11.1467 23.6257 13.511 21.5588C13.7028 21.3908 13.8903 21.218 14.0734 21.0406C14.3099 21.2689 14.5528 21.4905 14.8018 21.7052C17.0921 23.676 19.354 24.4718 20.7534 23.6617C22.1987 22.8249 22.6685 20.2929 22.0586 17.2124C22.0106 16.9711 21.9567 16.7309 21.897 16.4922C22.0676 16.4417 22.2349 16.3897 22.3981 16.3356C25.4874 15.3121 27.4974 13.6574 27.4974 11.965C27.4974 10.3422 25.6165 8.77282 22.7061 7.77093ZM22.0361 15.2429C21.8887 15.2917 21.7376 15.3387 21.5835 15.3845C21.2424 14.3048 20.7822 13.1568 20.2189 11.9706C20.7564 10.8127 21.1989 9.67935 21.5304 8.60672C21.8061 8.68651 22.0736 8.77061 22.3315 8.85935C24.8251 9.71788 26.3462 10.987 26.3462 11.965C26.3462 13.0067 24.7035 14.359 22.0361 15.2429ZM20.9294 17.436C21.199 18.7981 21.2375 20.0297 21.0588 20.9925C20.8984 21.8577 20.5757 22.4344 20.1765 22.6655C19.3274 23.157 17.5112 22.5181 15.5526 20.8326C15.3211 20.633 15.0951 20.4269 14.875 20.2147C15.6344 19.3843 16.3933 18.4189 17.1339 17.3467C18.4366 17.2311 19.6674 17.0421 20.7835 16.7841C20.8372 17.0002 20.8859 17.2176 20.9294 17.436ZM9.73694 22.5805C8.90725 22.8735 8.24641 22.8819 7.84694 22.6516C6.99694 22.1614 6.64357 20.2688 7.12557 17.7303C7.18286 17.4303 7.24847 17.132 7.3223 16.8357C8.42609 17.0799 9.64788 17.2555 10.9537 17.3614C11.6994 18.4105 12.4801 19.3748 13.2669 20.2192C13.0997 20.3811 12.9285 20.5387 12.7536 20.6921C11.708 21.606 10.6603 22.2544 9.73694 22.5805ZM5.84999 15.2365C4.53599 14.7874 3.45083 14.2037 2.70704 13.5667C2.03862 12.9944 1.70125 12.4261 1.70125 11.965C1.70125 10.9838 3.16409 9.73219 5.60399 8.88156C5.90009 8.7784 6.20999 8.68104 6.53157 8.58967C6.86883 9.68651 7.31115 10.8334 7.84494 11.993C7.3042 13.1699 6.85557 14.335 6.51504 15.4448C6.29168 15.3808 6.06993 15.3114 5.84999 15.2365ZM7.15294 6.36703C6.64651 3.77893 6.98283 1.82661 7.82925 1.33661C8.73072 0.814719 10.7242 1.55882 12.8254 3.42451C12.9624 3.54644 13.0972 3.67085 13.2297 3.79767C12.4467 4.6384 11.6731 5.59556 10.9341 6.63851C9.66673 6.75598 8.45357 6.94461 7.3382 7.19735C7.26948 6.92221 7.20771 6.64539 7.15294 6.36714V6.36703ZM18.7768 9.23735C18.5134 8.78229 18.2402 8.33296 17.9574 7.88967C18.8171 7.9984 19.6409 8.14272 20.4145 8.31914C20.1823 9.06356 19.8928 9.84177 19.5521 10.6397C19.303 10.1671 19.0446 9.69958 18.7768 9.23735ZM14.0366 4.6204C14.5676 5.19567 15.0994 5.83788 15.6224 6.53472C14.5614 6.48461 13.4985 6.4844 12.4375 6.53409C12.961 5.84367 13.4974 5.2023 14.0366 4.6204ZM9.26599 9.24525C9.0016 9.70376 8.74795 10.1684 8.50525 10.6387C8.17009 9.84367 7.88325 9.06188 7.64904 8.30693C8.41788 8.13493 9.23778 7.9943 10.0921 7.88756C9.80614 8.33356 9.53069 8.78621 9.26599 9.24514V9.24525ZM10.1166 16.1244C9.23399 16.0259 8.40178 15.8925 7.63315 15.7251C7.87104 14.9567 8.1642 14.1583 8.50662 13.3462C8.75029 13.8169 9.00499 14.2818 9.27051 14.7405C9.54357 15.2121 9.8263 15.674 10.1166 16.1244ZM14.0684 19.3907C13.5227 18.8021 12.9785 18.1508 12.447 17.4504C12.963 17.4706 13.489 17.4809 14.0237 17.4809C14.5729 17.4809 15.1159 17.4686 15.6503 17.4448C15.1256 18.1579 14.5958 18.8101 14.0684 19.3907ZM19.5629 13.3047C19.9231 14.1258 20.2267 14.92 20.4678 15.6752C19.6865 15.8536 18.8429 15.9971 17.9541 16.1038C18.2389 15.6523 18.5147 15.1951 18.7814 14.7326C19.0524 14.2625 19.313 13.7864 19.5629 13.3047ZM17.7842 14.1575C17.376 14.8665 16.9449 15.5622 16.4915 16.2432C15.6702 16.3014 14.847 16.3303 14.0237 16.3299C13.185 16.3299 12.3694 16.3038 11.5839 16.2528C11.1186 15.5733 10.6793 14.8765 10.2667 14.1638H10.2668C9.85622 13.4548 9.47268 12.7306 9.11704 11.9925C9.47177 11.2543 9.85415 10.5297 10.2634 9.82019L10.2633 9.8203C10.6723 9.11064 11.1082 8.41677 11.5699 7.74019C12.3713 7.67956 13.193 7.64798 14.0236 7.64798H14.0237C14.858 7.64798 15.6808 7.67988 16.482 7.74093C16.939 8.41649 17.3721 9.10798 17.7804 9.81409C18.191 10.522 18.5784 11.2431 18.9421 11.9762C18.5821 12.7168 18.1959 13.4443 17.7842 14.1575ZM20.1589 1.3023C21.0613 1.82272 21.4122 3.92135 20.8453 6.67346C20.809 6.84904 20.7684 7.02788 20.7242 7.20925C19.6061 6.95114 18.3921 6.75925 17.121 6.63998C16.3806 5.58556 15.6134 4.62693 14.8431 3.79703C15.045 3.60246 15.2517 3.41292 15.4629 3.22861C17.4524 1.49735 19.3118 0.813771 20.1589 1.3023ZM14.0237 9.55872C15.3526 9.55872 16.43 10.6361 16.43 11.965C16.43 13.294 15.3526 14.3714 14.0237 14.3714C12.6947 14.3714 11.6174 13.294 11.6174 11.965C11.6174 10.6361 12.6947 9.55872 14.0237 9.55872Z" fill="#00D8FF"/>
</svg>
