<svg width="41" height="24" viewBox="0 0 41 24" fill="none" xmlns="http://www.w3.org/2000/svg">
<path d="M20.6 0C15.2805 0 11.9558 2.65979 10.6259 7.97922C12.6207 5.31943 14.948 4.32203 17.6078 4.98701C19.1252 5.36634 20.2099 6.46738 21.4105 7.68592C23.3664 9.67122 25.6298 11.9688 30.574 11.9688C35.8934 11.9688 39.2182 9.30904 40.548 3.98961C38.5532 6.6494 36.226 7.6468 33.5662 6.98182C32.0487 6.60249 30.9641 5.50145 29.7634 4.28291C27.8076 2.29761 25.5441 0 20.6 0ZM10.6259 11.9688C5.30651 11.9688 1.98173 14.6286 0.651917 19.9481C2.64672 17.2883 4.97394 16.2909 7.63373 16.9558C9.15119 17.3352 10.2359 18.4362 11.4365 19.6548C13.3923 21.6401 15.6558 23.9377 20.6 23.9377C25.9194 23.9377 29.2442 21.2779 30.574 15.9584C28.5792 18.6182 26.252 19.6156 23.5922 18.9506C22.0747 18.5713 20.99 17.4703 19.7894 16.2517C17.8336 14.2664 15.5701 11.9688 10.6259 11.9688Z" fill="url(#paint0_linear_947_35)"/>
<defs>
<linearGradient id="paint0_linear_947_35" x1="-0.456397" y1="7.66005" x2="34.0004" y2="27.5272" gradientUnits="userSpaceOnUse">
<stop stop-color="#2298BD"/>
<stop offset="1" stop-color="#0ED7B5"/>
</linearGradient>
</defs>
</svg>
