<svg width="25" height="24" viewBox="0 0 25 24" fill="none" xmlns="http://www.w3.org/2000/svg">
<path d="M23.9162 14.3715C23.7766 13.9488 23.4111 13.6545 22.9384 13.5838C22.7154 13.5506 22.4602 13.5647 22.1581 13.627C21.6315 13.7356 21.2409 13.777 20.9558 13.785C22.0319 11.9682 22.9069 9.89637 23.4106 7.9461C24.2252 4.79255 23.7899 3.35592 23.2813 2.7061C21.9352 0.986099 19.9713 0.0620993 17.602 0.0338266C16.3381 0.0183721 15.2285 0.267918 14.6497 0.447372C14.1108 0.352281 13.5314 0.29919 12.9234 0.289372C11.7836 0.27119 10.7766 0.519645 9.91617 1.03028C9.43981 0.86919 8.67526 0.642099 7.79236 0.49719C5.71581 0.156281 4.04217 0.421918 2.81799 1.28674C1.33563 2.33383 0.648446 4.1531 0.775537 6.69401C0.815901 7.50074 1.26717 9.95528 1.97772 12.2831C2.38608 13.6211 2.82154 14.7322 3.27199 15.5858C3.91081 16.7963 4.59436 17.5091 5.36172 17.7651C5.79181 17.9084 6.57326 18.0087 7.39517 17.3242C7.49936 17.4504 7.63836 17.5757 7.82281 17.6922C8.05708 17.8399 8.34354 17.9606 8.62963 18.0322C9.66063 18.2899 10.6264 18.2255 11.4503 17.8642C11.4554 18.0107 11.4593 18.1507 11.4625 18.2716C11.468 18.4677 11.4734 18.66 11.4806 18.8398C11.5294 20.0556 11.6122 21.001 11.8573 21.6625C11.8707 21.6988 11.8888 21.7543 11.9079 21.8131C12.0302 22.1875 12.2346 22.8142 12.7548 23.305C13.2934 23.8135 13.945 23.9694 14.5417 23.9694C14.841 23.9694 15.1265 23.9301 15.377 23.8765C16.2697 23.6851 17.2836 23.3936 18.0171 22.3493C18.7105 21.362 19.0476 19.875 19.1086 17.532C19.1165 17.4657 19.1238 17.4025 19.1308 17.3422L19.1454 17.2184L19.3087 17.2327L19.3508 17.2356C20.2601 17.277 21.3719 17.0842 22.0547 16.767C22.5943 16.5166 24.3233 15.6038 23.9162 14.3715Z" fill="black"/>
<path d="M22.3614 14.6111C19.6578 15.1688 19.4719 14.2535 19.4719 14.2535C22.3264 10.0178 23.5198 4.64112 22.4901 3.32521C19.6806 -0.264335 14.8174 1.4333 14.7362 1.4773L14.7102 1.48203C14.176 1.37112 13.5782 1.30512 12.9063 1.29412C11.6831 1.27412 10.7551 1.61485 10.0509 2.14885C10.0509 2.14885 1.37543 -1.42515 1.77897 6.64376C1.86479 8.3603 4.23934 19.6322 7.07152 16.2276C8.1067 14.9826 9.10697 13.9299 9.10697 13.9299C9.6037 14.2599 10.1984 14.4283 10.8219 14.3678L10.8703 14.3268C10.8552 14.4813 10.8622 14.6325 10.8897 14.8115C10.1601 15.6267 10.3745 15.7698 8.91597 16.07C7.44006 16.3742 8.30707 16.9157 8.87316 17.0573C9.55943 17.2288 11.1471 17.4719 12.2198 15.9702L12.1771 16.1416C12.4629 16.3706 12.6636 17.6309 12.63 18.7736C12.5963 19.9161 12.5739 20.7006 12.7991 21.3133C13.0244 21.926 13.2489 23.3047 15.1663 22.8938C16.7684 22.5505 17.5987 21.6608 17.7142 20.1766C17.7962 19.1215 17.9817 19.2775 17.9933 18.3341L18.1422 17.8876C18.3137 16.4573 18.1694 15.9958 19.1564 16.2105L19.3964 16.2316C20.1228 16.2646 21.0737 16.1147 21.6318 15.8553C22.8334 15.2977 23.5462 14.3665 22.3612 14.6111H22.3614Z" fill="#336791"/>
<path d="M10.5587 7.41139C10.3151 7.37748 10.0944 7.40884 9.98279 7.49339C9.92006 7.54093 9.90061 7.59603 9.89534 7.63393C9.88134 7.73439 9.9517 7.84548 9.99497 7.90275C10.1173 8.06493 10.2961 8.17639 10.473 8.20093C10.4986 8.20457 10.5242 8.20621 10.5495 8.20621C10.8445 8.20621 11.1128 7.97648 11.1364 7.80693C11.166 7.59457 10.8577 7.45303 10.5587 7.41148V7.41139ZM18.63 7.41812C18.6067 7.25166 18.3105 7.20421 18.0294 7.2433C17.7487 7.28239 17.4765 7.40912 17.4992 7.57593C17.5174 7.70566 17.7517 7.92712 18.029 7.92712C18.0524 7.92712 18.0761 7.92557 18.0999 7.92221C18.285 7.89657 18.4208 7.77903 18.4853 7.7113C18.5835 7.60803 18.6404 7.49293 18.63 7.41812Z" fill="white"/>
<path d="M23.2611 14.5477C23.158 14.236 22.8262 14.1357 22.2749 14.2495C20.6381 14.5874 20.0519 14.3534 19.8595 14.2116C21.1317 12.2735 22.1784 9.93055 22.743 7.74464C23.0105 6.70918 23.1582 5.74755 23.1703 4.96373C23.1836 4.10346 23.0371 3.47127 22.7349 3.08509C21.5165 1.52827 19.7284 0.693182 17.5638 0.670273C16.0757 0.653546 14.8184 1.03436 14.5747 1.14145C14.0615 1.01382 13.5019 0.935455 12.8927 0.925455C11.7756 0.907364 10.81 1.17482 10.0105 1.72C9.66327 1.59073 8.76581 1.28264 7.66827 1.10582C5.77081 0.800364 4.263 1.03182 3.187 1.79409C1.90309 2.70373 1.31036 4.32973 1.42518 6.62682C1.46381 7.39964 1.90418 9.77709 2.59909 12.0539C3.51381 15.0506 4.50818 16.7471 5.55436 17.0961C5.67681 17.1369 5.818 17.1655 5.97372 17.1655C6.35536 17.1655 6.82327 16.9935 7.31009 16.4082C7.90386 15.6959 8.51809 15.0009 9.152 14.324C9.56327 14.5447 10.0151 14.668 10.4772 14.6804C10.4781 14.6925 10.4793 14.7045 10.4804 14.7165C10.4008 14.8114 10.3229 14.9076 10.2467 15.0052C9.92654 15.4116 9.8599 15.4963 8.82927 15.7085C8.53609 15.769 7.75745 15.9295 7.746 16.4753C7.73363 17.0716 8.66645 17.3221 8.77272 17.3486C9.14309 17.4414 9.4999 17.4871 9.84018 17.4871C10.6677 17.4871 11.396 17.2151 11.978 16.6888C11.9601 18.8148 12.0487 20.9097 12.304 21.548C12.5131 22.0705 13.0238 23.3475 14.6371 23.3475C14.8738 23.3475 15.1344 23.3199 15.421 23.2585C17.1047 22.8975 17.8359 22.1534 18.1187 20.5127C18.2701 19.6359 18.5298 17.5422 18.652 16.4191C18.9098 16.4995 19.2417 16.5364 19.6005 16.5363C20.3489 16.5363 21.2125 16.3773 21.754 16.1259C22.3624 15.8434 23.4602 15.1501 23.2611 14.5477ZM19.2514 6.95864C19.2459 7.29018 19.2003 7.59118 19.1519 7.90536C19.0998 8.24327 19.046 8.59264 19.0324 9.01673C19.0191 9.42945 19.0706 9.85855 19.1205 10.2735C19.2212 11.1117 19.3245 11.9746 18.9244 12.8261C18.858 12.7083 18.7988 12.5866 18.7472 12.4616C18.6975 12.3411 18.5895 12.1475 18.4399 11.8795C17.8582 10.8362 16.4959 8.39309 17.1933 7.39618C17.401 7.09945 17.9282 6.79436 19.2514 6.95864ZM17.6474 1.34164C19.5869 1.38445 21.1211 2.11 22.2073 3.498C23.0404 4.56264 22.123 9.40691 19.4673 13.5861C19.4406 13.5521 19.4137 13.5183 19.3867 13.4845L19.3531 13.4425C20.0394 12.3092 19.9052 11.1878 19.7857 10.1936C19.7366 9.78564 19.6903 9.40027 19.7021 9.03827C19.7143 8.65464 19.765 8.32555 19.8141 8.00736C19.8744 7.61527 19.9357 7.20955 19.9188 6.73127C19.9314 6.68109 19.9365 6.62182 19.9299 6.55146C19.8867 6.09282 19.3631 4.72018 18.2958 3.47782C17.712 2.79827 16.8606 2.03782 15.6982 1.52491C16.1982 1.42127 16.8819 1.32464 17.6474 1.34164ZM6.7949 15.9798C6.25854 16.6247 5.88818 16.5011 5.76636 16.4605C4.97272 16.1958 4.05181 14.5184 3.2399 11.8584C2.53736 9.55673 2.12681 7.24227 2.09427 6.59327C1.99172 4.54073 2.48927 3.11027 3.57318 2.34155C5.33718 1.09064 8.23736 1.83936 9.40272 2.21909C9.386 2.23564 9.36854 2.25109 9.352 2.26791C7.43963 4.19918 7.485 7.49882 7.48972 7.70055C7.48954 7.77836 7.49609 7.88855 7.505 8.04009C7.5379 8.59509 7.59918 9.628 7.43554 10.7977C7.28354 11.8847 7.61863 12.9486 8.35472 13.7167C8.43027 13.7954 8.50967 13.8703 8.59263 13.9411C8.265 14.292 7.5529 15.068 6.7949 15.9798ZM8.83845 13.2532C8.24518 12.6341 7.97572 11.773 8.09909 10.8905C8.27181 9.65482 8.20809 8.57864 8.17381 8.00045C8.169 7.91955 8.16472 7.84864 8.16227 7.79273C8.44163 7.545 9.73627 6.85136 10.6595 7.06291C11.0808 7.15936 11.3375 7.44627 11.4443 7.93973C11.9966 10.4945 11.5174 11.5594 11.1323 12.4151C11.0529 12.5914 10.9779 12.758 10.9139 12.9304L10.8643 13.0636C10.7386 13.4005 10.6217 13.7138 10.5493 14.0113C9.91854 14.0095 9.305 13.74 8.83845 13.2531V13.2532ZM8.93527 16.6986C8.75109 16.6526 8.58545 16.5727 8.48827 16.5065C8.56945 16.4683 8.7139 16.4163 8.96445 16.3646C10.1769 16.1151 10.3642 15.9389 10.7731 15.4197C10.8668 15.3006 10.9731 15.1657 11.1203 15.0014L11.1205 15.0012C11.3396 14.7557 11.4399 14.7974 11.6217 14.8728C11.7691 14.9337 11.9126 15.1185 11.9708 15.3217C11.9984 15.4177 12.0293 15.5999 11.9281 15.7417C11.0739 16.9377 9.82918 16.9224 8.93527 16.6986ZM15.2806 22.6034C13.7974 22.9212 13.2722 22.1644 12.9261 21.2992C12.7027 20.7406 12.5929 18.2219 12.6708 15.4404C12.6718 15.4034 12.6665 15.3676 12.6564 15.334C12.6473 15.2676 12.6334 15.2019 12.6149 15.1375C12.4991 14.7327 12.2168 14.3942 11.8782 14.2538C11.7436 14.1981 11.4967 14.0958 11.2 14.1717C11.2633 13.911 11.373 13.6165 11.492 13.2977L11.5419 13.1636C11.5981 13.0125 11.6686 12.8558 11.7432 12.69C12.1462 11.7947 12.6981 10.5685 12.0991 7.79818C11.8747 6.76055 11.1255 6.25382 9.98963 6.37155C9.30872 6.442 8.68572 6.71673 8.375 6.87427C8.30818 6.90809 8.24709 6.94082 8.18999 6.97264C8.27672 5.92718 8.60436 3.97336 9.83 2.73718C10.6017 1.959 11.6295 1.57464 12.8816 1.59536C15.3489 1.63573 16.9311 2.90191 17.824 3.95709C18.5935 4.86627 19.0101 5.78218 19.1764 6.27618C17.9259 6.149 17.0755 6.39582 16.6444 7.01218C15.7065 8.35291 17.1574 10.9551 17.8548 12.2057C17.9827 12.4349 18.0931 12.633 18.1278 12.7172C18.3549 13.2675 18.6489 13.635 18.8635 13.9032C18.9294 13.9854 18.9932 14.0651 19.0417 14.1347C18.663 14.2439 17.9827 14.4962 18.0447 15.7572C17.9947 16.3899 17.6392 19.3523 17.4585 20.3989C17.2201 21.7816 16.7113 22.2966 15.2806 22.6035V22.6034ZM21.4719 15.5183C21.0846 15.698 20.4365 15.8328 19.8209 15.8618C19.1409 15.8936 18.7947 15.7856 18.7133 15.7192C18.6751 14.9334 18.9675 14.8513 19.2771 14.7644C19.3257 14.7507 19.3732 14.7374 19.419 14.7214C19.4475 14.7445 19.4786 14.7675 19.5128 14.7901C20.0594 15.1508 21.0342 15.1897 22.4105 14.9056L22.4255 14.9026C22.2399 15.0762 21.9223 15.3091 21.4719 15.5183Z" fill="white"/>
</svg>
