<svg width="25" height="24" viewBox="0 0 25 24" fill="none" xmlns="http://www.w3.org/2000/svg">
<path d="M23.7974 2.53918L18.8328 0.14882C18.5524 0.0138297 18.237 -0.0306757 17.9302 0.0214628C17.6234 0.0736013 17.3404 0.219806 17.1203 0.439844L0.868 15.2581C0.430898 15.6568 0.431465 16.3449 0.869134 16.7429L2.19669 17.9497C2.37012 18.1074 2.59327 18.1995 2.82744 18.2099C3.06161 18.2203 3.29205 18.1485 3.4788 18.0068L23.0503 3.15931C23.7069 2.66126 24.65 3.12954 24.65 3.95367V3.89603C24.65 3.61254 24.57 3.33481 24.4191 3.09478C24.2683 2.85474 24.0528 2.66216 23.7974 2.53918Z" fill="#0065A9"/>
<path d="M23.7974 21.4314L18.8328 23.8218C18.5524 23.9567 18.237 24.0012 17.9302 23.9491C17.6234 23.897 17.3404 23.7508 17.1203 23.5308L0.868 8.71245C0.430898 8.3139 0.431465 7.62565 0.869134 7.22776L2.19669 6.02086C2.37013 5.86318 2.59328 5.77116 2.82746 5.76076C3.06163 5.75035 3.29206 5.82221 3.4788 5.96388L23.0503 20.8113C23.7069 21.3093 24.65 20.841 24.65 20.0168V20.0746C24.65 20.358 24.57 20.6358 24.4191 20.8758C24.2683 21.1158 24.0528 21.3084 23.7974 21.4314Z" fill="#007ACC"/>
<path d="M18.8172 23.8237C18.5367 23.9586 18.2213 24.003 17.9145 23.9508C17.6076 23.8987 17.3246 23.7524 17.1046 23.5324C17.6602 24.088 18.6105 23.6944 18.6105 22.9085V1.06518C18.6105 0.279223 17.6602 -0.11432 17.1046 0.441365C17.3246 0.221309 17.6076 0.0750679 17.9144 0.0228643C18.2212 -0.0293393 18.5367 0.0150744 18.8172 0.149964L23.7809 2.53702C24.0365 2.65993 24.2522 2.85252 24.4031 3.09261C24.5541 3.33271 24.6341 3.61055 24.6341 3.89415V20.0797C24.6341 20.6584 24.3025 21.1861 23.7809 21.4368L18.8172 23.8238V23.8237Z" fill="#1F9CF0"/>
<path d="M17.6266 23.8682C17.8184 23.9429 18.0234 23.9774 18.229 23.9695C18.4347 23.9616 18.6365 23.9115 18.8219 23.8223L23.7825 21.4352C24.038 21.3122 24.2536 21.1196 24.4045 20.8795C24.5554 20.6394 24.6354 20.3616 24.6354 20.0781V3.89262C24.6354 3.60907 24.5554 3.33127 24.4045 3.09119C24.2537 2.8511 24.0381 2.65848 23.7826 2.53548L18.8218 0.148335C18.5415 0.0134749 18.2262 -0.0309241 17.9196 0.0212826C17.613 0.0734893 17.3301 0.21972 17.1102 0.439736L7.61362 9.10393L3.47693 5.96389C3.29033 5.82225 3.06003 5.7504 2.826 5.76081C2.59196 5.77121 2.36895 5.86322 2.19567 6.02087L0.868957 7.22777C0.431476 7.62566 0.431004 8.31391 0.867823 8.71246L4.45526 11.9853L0.867823 15.2581C0.431004 15.6568 0.431476 16.3449 0.868957 16.7429L2.19567 17.9497C2.36894 18.1074 2.59194 18.1994 2.82598 18.2098C3.06002 18.2203 3.29032 18.1484 3.47693 18.0068L7.61362 14.8667L17.1102 23.5308C17.2571 23.6778 17.433 23.7927 17.6266 23.8682ZM18.6154 6.51542L11.4095 11.9853L18.6154 17.4551V6.51552V6.51542Z" fill="url(#paint0_linear_947_81)" fill-opacity="0.25"/>
<defs>
<linearGradient id="paint0_linear_947_81" x1="12.588" y1="0" x2="12.588" y2="23.9706" gradientUnits="userSpaceOnUse">
<stop stop-color="white"/>
<stop offset="1" stop-color="white" stop-opacity="0"/>
</linearGradient>
</defs>
</svg>
