<svg width="22" height="24" viewBox="0 0 22 24" fill="none" xmlns="http://www.w3.org/2000/svg">
<path d="M21.5608 7.03766C21.5606 6.63516 21.4745 6.27949 21.3004 5.97432C21.1294 5.67407 20.8733 5.42249 20.5298 5.22357C17.6944 3.58866 14.8563 1.95874 12.0218 0.322158C11.2576 -0.119009 10.5167 -0.102842 9.75817 0.344658C8.62959 1.01016 2.97917 4.24741 1.29542 5.22266C0.602003 5.62416 0.264586 6.23849 0.26442 7.03691C0.263336 10.3248 0.26442 13.6127 0.263336 16.9007C0.263336 17.2943 0.34592 17.6432 0.512336 17.9437C0.68342 18.253 0.943086 18.5115 1.2945 18.7149C2.97834 19.6902 8.6295 22.9272 9.75784 23.5929C10.5167 24.0407 11.2576 24.0567 12.022 23.6154C14.8566 21.9787 17.6949 20.3488 20.5308 18.7139C20.8822 18.5106 21.1418 18.2519 21.3129 17.9429C21.4791 17.6422 21.5618 17.2935 21.5618 16.8997C21.5618 16.8997 21.5618 10.3257 21.5608 7.03766Z" fill="#A179DC"/>
<path d="M10.9452 11.9368L0.512329 17.9438C0.683412 18.253 0.943079 18.5115 1.2945 18.7149C2.97833 19.6902 8.6295 22.9272 9.75783 23.5929C10.5167 24.0407 11.2576 24.0567 12.022 23.6154C14.8566 21.9788 17.6949 20.3489 20.5307 18.7139C20.8822 18.5106 21.1418 18.2519 21.3129 17.9429L10.9452 11.9368" fill="#280068"/>
<path d="M21.5608 7.03764C21.5606 6.63514 21.4745 6.27947 21.3004 5.9743L10.9452 11.9368L21.3129 17.9429C21.4791 17.6422 21.5617 17.2935 21.5619 16.8997C21.5619 16.8997 21.5619 10.3256 21.5608 7.03764" fill="#390091"/>
<path d="M17.0877 9.69116V10.814H18.2105V9.69116H18.7719V10.814H19.8948V11.3754H18.7719V12.4982H19.8948V13.0596H18.7719V14.1824H18.2105V13.0596H17.0877V14.1824H16.5263V13.0596H15.4035V12.4982H16.5263V11.3754H15.4035V10.814H16.5263V9.69116H17.0877ZM18.2105 11.3753H17.0877V12.4982H18.2105V11.3754V11.3753Z" fill="white"/>
<path d="M10.9681 4.05215C13.8967 4.05215 16.4537 5.64265 17.8232 8.00681L17.8099 7.98406L14.3641 9.96806C13.6852 8.81865 12.4407 8.0429 11.013 8.0269L10.968 8.02665C8.79091 8.02665 7.02591 9.79165 7.02591 11.9687C7.0252 12.6549 7.20447 13.3293 7.54583 13.9246C8.22533 15.1108 9.50275 15.9109 10.9681 15.9109C12.4425 15.9109 13.7272 15.1006 14.4032 13.9017L14.3867 13.9305L17.8273 15.9236C16.4727 18.2678 13.9508 19.8534 11.0562 19.885L10.9681 19.8855C8.03016 19.8855 5.466 18.2851 4.09983 15.9085C3.43291 14.7482 3.05133 13.4031 3.05133 11.9687C3.05133 7.59656 6.59566 4.05206 10.968 4.05206L10.9681 4.05215Z" fill="white"/>
</svg>
