<svg width="18" height="24" viewBox="0 0 18 24" fill="none" xmlns="http://www.w3.org/2000/svg">
<path d="M17.6201 4.70465L16.075 22.0139L9.12959 23.9394L2.20336 22.0166L0.659851 4.70465H17.6201Z" fill="#E44D26"/>
<path d="M9.13998 22.4676L14.7522 20.9117L16.0725 6.12012H9.13998V22.4676Z" fill="#F16529"/>
<path d="M6.13631 10.3666H9.13997V8.24341H3.81589L3.86668 8.81303L4.38856 14.6641H9.13997V12.5409H6.33037L6.13631 10.3666ZM6.61485 15.7258H4.48343L4.78087 19.0596L9.13019 20.2669L9.13997 20.2642V18.0552L9.13066 18.0576L6.76603 17.4191L6.61485 15.7258Z" fill="#EBEBEB"/>
<path d="M2.23782 0H3.31683V1.06604H4.30388V0H5.38295V3.22823H4.30395V2.14724H3.31689V3.22823H2.23789V0H2.23782ZM6.80181 1.07056H5.85205V0H8.83137V1.07056H7.88101V3.22823H6.80201V1.07056H6.80195H6.80181ZM9.30419 0H10.4293L11.1213 1.13432L11.8128 0H12.9383V3.22823H11.8637V1.62814L11.1213 2.77596H11.1027L10.3599 1.62814V3.22823H9.30419V0ZM13.4753 0H14.5546V2.1612H16.072V3.22823H13.4752V0H13.4753Z" fill="white"/>
<path d="M9.13267 14.6641H11.7472L11.5007 17.4178L9.1326 18.0569V20.2659L13.4854 19.0596L13.5173 18.7008L14.0163 13.111L14.0681 12.5409H9.13267V14.6641ZM9.13267 10.3615V10.3666H14.2613L14.3038 9.88944L14.4006 8.81303L14.4514 8.24341H9.13267V10.3615V10.3615Z" fill="white"/>
</svg>
