<svg width="41" height="24" viewBox="0 0 41 24" fill="none" xmlns="http://www.w3.org/2000/svg">
<path d="M10.1548 6.25716H17.6553V6.85336H10.8424V11.3401H17.2491V11.9362H10.8424V16.8623H17.7334V17.4584H10.1548V6.25716ZM18.3273 6.25716H19.1242L22.6556 11.1832L26.2651 6.25709L31.1747 0L23.1087 11.701L27.2652 17.4584H26.437L22.6556 12.2186L18.8585 17.4584H18.046L22.2337 11.7009L18.3272 6.25716H18.3273ZM27.5621 6.85336V6.25709H36.1095V6.85328H32.1717V17.4583H31.4842V6.85336H27.5621ZM0.771545 6.25709H1.63096L13.4818 23.9909L8.58452 17.4583L1.4903 7.10431L1.45908 17.4585H0.771545V6.25709ZM36.0402 16.6823C35.8997 16.6823 35.7944 16.5735 35.7944 16.4328C35.7944 16.2922 35.8997 16.1833 36.0402 16.1833C36.1823 16.1833 36.286 16.2921 36.286 16.4328C36.286 16.5734 36.1823 16.6823 36.0402 16.6823ZM36.7158 16.0259H37.0837C37.0887 16.2252 37.2341 16.3591 37.4482 16.3591C37.6874 16.3591 37.8228 16.2151 37.8228 15.9456V14.2376H38.1974V15.9472C38.1974 16.4328 37.9165 16.7125 37.4515 16.7125C37.015 16.7125 36.7158 16.4412 36.7158 16.0259V16.0259ZM38.6874 16.0042H39.0586C39.0904 16.2336 39.3145 16.3792 39.6373 16.3792C39.9382 16.3792 40.159 16.2235 40.159 16.0092C40.159 15.825 40.0185 15.7145 39.6991 15.6391L39.388 15.5638C38.9515 15.4616 38.7526 15.2506 38.7526 14.8957C38.7526 14.4654 39.1037 14.179 39.6305 14.179C40.1204 14.179 40.4783 14.4653 40.5001 14.8722H40.1355C40.1004 14.6496 39.9064 14.5105 39.6254 14.5105C39.3295 14.5105 39.1322 14.6529 39.1322 14.8705C39.1322 15.043 39.2592 15.1418 39.5736 15.2155L39.8395 15.2808C40.3345 15.3963 40.5385 15.5973 40.5385 15.9606C40.5385 16.4228 40.1807 16.7125 39.6088 16.7125C39.0737 16.7125 38.7141 16.4361 38.6874 16.0041V16.0042Z" fill="white"/>
</svg>
