<svg width="1080" height="525" viewBox="0 0 1080 525" fill="none" xmlns="http://www.w3.org/2000/svg">
<path d="M391.419 177.175C391.42 183.015 390.269 188.798 388.031 194.193C385.794 199.587 382.513 204.487 378.378 208.611L76.0202 511.018C67.6655 519.368 56.336 524.057 44.5241 524.054C32.7122 524.05 21.3854 519.355 13.0355 511C4.68564 502.645 -0.00338223 491.316 1.83043e-06 479.504C0.00338589 467.692 4.6989 456.365 13.0536 448.015L315.423 145.704C321.648 139.476 329.579 135.234 338.215 133.515C346.851 131.795 355.802 132.676 363.937 136.045C372.073 139.414 379.026 145.12 383.918 152.441C388.809 159.762 391.42 168.37 391.419 177.175Z" fill="url(#paint0_linear_1063_113)"/>
<path d="M527.374 45.3118C527.374 46.3405 527.374 47.4153 527.374 48.2937V478.724C527.374 484.678 526.199 490.573 523.918 496.074C521.637 501.574 518.293 506.572 514.078 510.781C509.863 514.99 504.859 518.329 499.352 520.606C493.845 522.884 487.942 524.055 481.982 524.054C469.947 524.054 458.404 519.278 449.894 510.777C441.383 502.276 436.602 490.746 436.602 478.724V194.163C436.602 180.573 433.922 167.116 428.716 154.56C423.509 142.004 415.878 130.596 406.257 120.986C396.637 111.377 385.216 103.754 372.646 98.5532C360.076 93.3525 346.604 90.6757 332.999 90.6757H46.1163C40.0952 90.7717 34.1151 89.6701 28.5244 87.4349C22.9337 85.1997 17.8441 81.8756 13.5521 77.6564C9.26016 73.4371 5.85157 68.407 3.5249 62.8589C1.19823 57.3109 0 51.3559 0 45.3407C0 39.3256 1.19823 33.3706 3.5249 27.8225C5.85157 22.2745 9.26016 17.2443 13.5521 13.0251C17.8441 8.80582 22.9337 5.48178 28.5244 3.24659C34.1151 1.01141 40.0952 -0.0902543 46.1163 0.00577927H482.063C488.018 0.00273275 493.915 1.17287 499.417 3.4492C504.919 5.72553 509.917 9.06336 514.126 13.2716C518.334 17.4799 521.671 22.476 523.944 27.9739C526.217 33.4717 527.383 39.3635 527.374 45.3118Z" fill="url(#paint1_linear_1063_113)"/>
<path d="M817.375 523.801C765.844 523.801 714.247 511.029 675.214 485.594C640.129 462.735 611.754 433.506 590.791 398.719C560.625 348.358 548.145 289.366 555.331 231.104C562.518 172.842 588.959 118.65 630.459 77.1278C672.452 35.1421 727.402 8.57864 786.391 1.74845C845.381 -5.08173 904.947 8.22222 955.424 39.5012C959.988 42.3209 963.829 46.1688 966.641 50.7374C969.453 55.306 971.157 60.4689 971.618 65.8135C972.076 71.8531 970.985 77.9095 968.448 83.4098C965.912 88.9101 962.014 93.6723 957.124 97.2458C950.743 102.015 943.1 104.801 935.147 105.255C927.194 105.709 919.283 103.812 912.401 99.8003C870.81 75.3843 821.455 67.7984 774.45 78.5969C725.594 89.7029 683.394 119.732 655.599 163.147C636.271 193.453 626.128 228.706 626.394 264.65C626.661 300.593 637.326 335.692 657.102 365.708C673.136 390.361 694.59 411.027 719.827 426.128C756.044 447.621 798.385 456.446 840.173 451.211C881.96 445.976 920.816 426.98 950.611 397.217C1031.15 316.669 1013.23 236.131 995.432 195.358C991.818 187.115 991.117 177.889 993.445 169.195C995.772 160.501 1000.99 152.859 1008.24 147.524V147.524C1012.16 144.64 1016.68 142.681 1021.46 141.797C1026.25 140.912 1031.17 141.124 1035.86 142.417C1040.55 143.71 1044.89 146.05 1048.54 149.261C1052.2 152.472 1055.08 156.47 1056.96 160.954C1065.02 180.119 1073.53 202.879 1076.3 219.313C1081.94 252.626 1081.12 286.714 1073.88 319.716C1058.63 389.543 1015.97 449.447 953.779 488.389C915.997 512.026 866.757 523.801 817.375 523.801Z" fill="url(#paint2_linear_1063_113)"/>
<path d="M945.502 261.917C945.502 287.395 937.946 312.302 923.79 333.486C909.634 354.67 889.514 371.182 865.974 380.932C842.433 390.682 816.53 393.233 791.54 388.262C766.55 383.292 743.595 371.023 725.578 353.007C707.561 334.991 695.291 312.037 690.32 287.049C685.35 262.06 687.901 236.158 697.652 212.619C707.402 189.081 723.914 168.962 745.1 154.807C766.286 140.652 791.194 133.096 816.673 133.096C850.841 133.096 883.609 146.668 907.769 170.827C931.929 194.986 945.502 227.752 945.502 261.917ZM816.673 193.395C803.12 193.395 789.872 197.414 778.603 204.943C767.334 212.473 758.55 223.174 753.364 235.695C748.177 248.216 746.82 261.993 749.464 275.285C752.108 288.577 758.635 300.786 768.218 310.369C777.802 319.952 790.012 326.478 803.305 329.122C816.597 331.766 830.376 330.409 842.897 325.223C855.418 320.037 866.121 311.254 873.65 299.986C881.18 288.717 885.199 275.469 885.199 261.917C885.199 243.744 877.979 226.315 865.128 213.465C852.277 200.615 834.847 193.395 816.673 193.395V193.395Z" fill="url(#paint3_linear_1063_113)"/>
<defs>
<linearGradient id="paint0_linear_1063_113" x1="13.0536" y1="511.03" x2="378.38" y2="145.706" gradientUnits="userSpaceOnUse">
<stop stop-color="#9ECAFE"/>
<stop offset="1" stop-color="#7FDC96"/>
</linearGradient>
<linearGradient id="paint1_linear_1063_113" x1="231.455" y1="294.576" x2="513.288" y2="12.4263" gradientUnits="userSpaceOnUse">
<stop stop-color="#9ECAFE"/>
<stop offset="1" stop-color="#7FDC96"/>
</linearGradient>
<linearGradient id="paint2_linear_1063_113" x1="630.481" y1="449.436" x2="998.568" y2="81.327" gradientUnits="userSpaceOnUse">
<stop stop-color="#9ECAFE"/>
<stop offset="1" stop-color="#7FDC96"/>
</linearGradient>
<linearGradient id="paint3_linear_1063_113" x1="725.583" y1="353.012" x2="907.763" y2="170.822" gradientUnits="userSpaceOnUse">
<stop stop-color="#9ECAFE"/>
<stop offset="1" stop-color="#7FDC96"/>
</linearGradient>
</defs>
</svg>
