<svg width="25" height="24" viewBox="0 0 25 24" fill="none" xmlns="http://www.w3.org/2000/svg">
<path d="M0.549988 12V24H24.55V0H0.549988V12Z" fill="#007ACC"/>
<path d="M5.85736 12.0797L5.84976 13.0625H8.97351V21.9387H11.183V13.0625H14.3069V12.0987C14.3069 11.5653 14.2954 11.1196 14.2802 11.1082C14.2688 11.093 12.3677 11.0853 10.0631 11.0892L5.8687 11.1006L5.85736 12.0796V12.0797ZM19.9156 11.0727C20.5251 11.225 20.9899 11.4955 21.4166 11.9374C21.6375 12.1737 21.9651 12.6041 21.9918 12.7069C21.9993 12.7374 20.9556 13.4383 20.3233 13.8308C20.3004 13.846 20.2089 13.747 20.106 13.5945C19.7975 13.145 19.4737 12.9507 18.9784 12.9164C18.2509 12.8669 17.7823 13.2478 17.7861 13.884C17.7861 14.0708 17.8127 14.1812 17.8889 14.3336C18.049 14.6651 18.3461 14.8632 19.2794 15.2669C20.9975 16.006 21.7327 16.4936 22.1899 17.1869C22.7004 17.9603 22.8147 19.1946 22.468 20.1127C22.0871 21.1107 21.1424 21.7888 19.8127 22.0136C19.4013 22.0859 18.4261 22.0745 17.9842 21.9945C17.0204 21.8232 16.1061 21.3469 15.5423 20.7221C15.3213 20.4784 14.8908 19.8421 14.9175 19.7965C14.929 19.7812 15.028 19.7202 15.1384 19.6555C15.2451 19.5945 15.649 19.3621 16.0299 19.1412L16.7194 18.7412L16.8642 18.9546C17.0661 19.263 17.5079 19.6859 17.7747 19.8269C18.5403 20.2307 19.5918 20.1736 20.1099 19.7088C20.3309 19.507 20.4223 19.2974 20.4223 18.9888C20.4223 18.7107 20.3879 18.5889 20.2432 18.3793C20.0566 18.1126 19.6756 17.8879 18.5937 17.4193C17.3556 16.8859 16.8223 16.5546 16.3347 16.0288C16.0528 15.7242 15.786 15.2365 15.6756 14.8288C15.5842 14.4897 15.5612 13.6403 15.6337 13.2974C15.889 12.1012 16.7918 11.2669 18.0946 11.0193C18.5174 10.9393 19.5003 10.9698 19.9156 11.0727Z" fill="white"/>
</svg>
