<svg width="17" height="24" viewBox="0 0 17 24" fill="none" xmlns="http://www.w3.org/2000/svg">
<path d="M4.54999 24C6.75799 24 8.54999 22.208 8.54999 20V16H4.54999C2.34199 16 0.549988 17.792 0.549988 20C0.549988 22.208 2.34199 24 4.54999 24Z" fill="#0ACF83"/>
<path d="M0.549988 12C0.549988 9.792 2.34199 8 4.54999 8H8.54999V16H4.54999C2.34199 16 0.549988 14.208 0.549988 12Z" fill="#A259FF"/>
<path d="M0.549988 4C0.549988 1.792 2.34199 0 4.54999 0H8.54999V8H4.54999C2.34199 8 0.549988 6.208 0.549988 4Z" fill="#F24E1E"/>
<path d="M8.54999 0H12.55C14.758 0 16.55 1.792 16.55 4C16.55 6.208 14.758 8 12.55 8H8.54999V0Z" fill="#FF7262"/>
<path d="M16.55 12C16.55 14.208 14.758 16 12.55 16C10.342 16 8.54999 14.208 8.54999 12C8.54999 9.792 10.342 8 12.55 8C14.758 8 16.55 9.792 16.55 12Z" fill="#1ABCFE"/>
</svg>
