<svg width="25" height="24" viewBox="0 0 25 24" fill="none" xmlns="http://www.w3.org/2000/svg">
<path d="M7.22254 6.53398L5.67136 4.98279L5.67792 16.1953L5.69648 16.7193C5.70417 16.9659 5.74992 17.2442 5.82623 17.5325L18.1172 21.8666L21.1896 20.5054L21.1907 20.5016L7.22254 6.53398Z" fill="#00D2B8"/>
<path d="M5.82623 17.5326L5.82698 17.5333C5.82623 17.5283 5.82361 17.5226 5.82361 17.5174C5.82361 17.5226 5.82436 17.5275 5.82623 17.5326ZM21.1896 20.5054L18.1172 21.8666L5.82698 17.5333C6.06173 18.4341 6.58148 19.4466 7.1408 20.0003L11.1518 23.9884L20.0702 24L21.1907 20.5016L21.1896 20.5054Z" fill="#55DDCA"/>
<path d="M0.894438 12.1983C0.497313 12.6223 0.694563 13.4968 1.33394 14.141L4.09188 16.9219L5.82625 17.5325C5.74994 17.2442 5.70419 16.9659 5.6965 16.7193L5.67794 16.1953L5.67137 4.98279L0.894438 12.1983Z" fill="#0081C6"/>
<path d="M18.2181 5.12684C17.9297 5.05315 17.6532 5.00759 17.4025 4.99972L16.8486 4.98059L5.67136 4.98209L21.1922 20.5017H21.1935L22.5567 17.4263L18.2181 5.12684Z" fill="#0079B3"/>
<path d="M18.204 5.12384C18.21 5.12515 18.2147 5.12684 18.2187 5.1274L18.2181 5.12684C18.2147 5.12515 18.21 5.12515 18.204 5.12384ZM20.6835 6.44365C20.1203 5.87572 19.1211 5.35953 18.2187 5.1274L22.5567 17.4263L21.1935 20.5017H21.1922L24.5234 19.4378L24.5305 10.305L20.6835 6.44365Z" fill="#00A4E4"/>
<path d="M17.6104 3.40291L14.8304 0.643288C14.1874 0.0063501 13.3125 -0.191837 12.8897 0.204163L5.67136 4.98204L16.8486 4.98054L17.4025 4.99966C17.6532 5.00754 17.9297 5.0531 18.2181 5.12679L17.6104 3.40291Z" fill="#00D2B8"/>
</svg>
